<?xml version="1.0" standalone="no"?>
<!DOCTYPE svg PUBLIC "-//W3C//DTD SVG 1.1//EN" "http://www.w3.org/Graphics/SVG/1.1/DTD/svg11.dtd" >
<svg xmlns="http://www.w3.org/2000/svg">
<metadata></metadata>
<defs>
<font id="mate_scregular" horiz-adv-x="1044" >
<font-face units-per-em="2048" ascent="1638" descent="-410" />
<missing-glyph horiz-adv-x="481" />
<glyph horiz-adv-x="0" />
<glyph horiz-adv-x="682" />
<glyph unicode=" "  horiz-adv-x="481" />
<glyph unicode="&#x09;" horiz-adv-x="481" />
<glyph unicode="&#xa0;" horiz-adv-x="481" />
<glyph unicode="!" horiz-adv-x="526" d="M150 76q0 23 4 49.5t8 41.5l4 15q74 13 117 13q73 0 73 -103q0 -21 -3.5 -46t-6.5 -40l-4 -14q-72 -17 -117 -17q-75 0 -75 101zM158 887l94 536h115l-86 -1071h-68z" />
<glyph unicode="&#x22;" horiz-adv-x="614" d="M102 1432q0 11 23 18.5t53 7.5q31 0 54.5 -7t23.5 -19q0 -117 -15.5 -258t-31.5 -203h-55q-17 66 -34.5 206.5t-17.5 254.5zM358 1432q0 11 23 18.5t53 7.5q31 0 54.5 -7t23.5 -19q0 -117 -15.5 -258t-31.5 -203h-55q-17 66 -34.5 206.5t-17.5 254.5z" />
<glyph unicode="#" d="M4 344l41 117h213l74 215h-234l41 117h234l121 342h116l-121 -342h216l120 342h117l-121 -342h219l-41 -117h-219l-73 -215h239l-41 -117h-239l-121 -344h-117l121 344h-215l-121 -344h-117l121 344h-213zM375 461h215l74 215h-215z" />
<glyph unicode="$" d="M156 57q1 13 11.5 77.5t20.5 122.5t11 58q21 0 52.5 -8t31.5 -24v-150q61 -33 159 -47l29 422l-121 70q-84 48 -127 119t-43 149q0 115 90.5 203t243.5 100l10 135h82l-10 -135q132 -9 260 -76q-2 -14 -16 -78t-28 -122t-15 -58q-20 0 -51 8.5t-31 24.5l8 149 q-55 33 -133 43l-29 -401l150 -84q92 -52 142 -129t50 -150q0 -142 -107.5 -220.5t-279.5 -80.5l-10 -155h-82l10 160q-133 16 -278 77zM326 877q0 -102 110 -166l47 -27l25 356q-84 -8 -133 -49.5t-49 -113.5zM524 80q98 0 155.5 50.5t57.5 121.5q0 46 -27 90t-79 74 l-82 47z" />
<glyph unicode="%" horiz-adv-x="1538" d="M61 961q0 166 84 259t211 93q123 0 203.5 -88.5t83.5 -253.5q0 -178 -82.5 -271.5t-218.5 -93.5q-126 0 -203.5 91t-77.5 264zM217 958q0 -137 32 -201.5t103 -64.5t103 64.5t32 201.5t-32 202t-103 65t-103 -65t-32 -202zM395 -115l629 1518h121l-629 -1518h-121z M895 330q0 166 84 259t211 93q123 0 203.5 -88.5t83.5 -253.5q0 -178 -82.5 -271.5t-218.5 -93.5q-126 0 -203.5 91t-77.5 264zM1051 328q0 -137 32 -202t103 -65t103 65t32 202t-32 201.5t-103 64.5t-103 -64.5t-32 -201.5z" />
<glyph unicode="&#x26;" horiz-adv-x="1187" d="M14 317q0 124 76.5 244.5t220.5 202.5l62 35q-101 166 -101 276q0 86 28 149.5t78.5 100t113.5 53.5t141 17q188 0 366 -82l-53 -305q-92 0 -92 28v213q-101 37 -201 37q-102 0 -182 -35q-41 -64 -41 -139q0 -104 80 -225l342 -527q51 77 80.5 160.5t32.5 151.5l-140 71 q-10 5 -10 23q0 9 5 26t10.5 29.5t7.5 12.5q11 0 128 -36t138 -46q-13 -112 -62.5 -241.5t-128.5 -242.5l103 -155l172 -50q0 -63 -33 -63h-262l-92 139q-169 -166 -375 -166q-196 0 -304 99t-108 245zM170 369q0 -115 72.5 -196t197.5 -81q161 0 303 135l-321 496l-76 -49 q-86 -55 -131 -136.5t-45 -168.5z" />
<glyph unicode="'" horiz-adv-x="358" d="M102 1432q0 11 23 18.5t53 7.5q31 0 54.5 -7t23.5 -19q0 -117 -15.5 -258t-31.5 -203h-55q-17 66 -34.5 206.5t-17.5 254.5z" />
<glyph unicode="(" horiz-adv-x="505" d="M90 438q0 313 106.5 598t301.5 455l55 -25q-149 -175 -223 -458.5t-74 -569.5q0 -251 58.5 -507t154.5 -416l-63 -9q-152 165 -234 414.5t-82 517.5z" />
<glyph unicode=")" horiz-adv-x="505" d="M-47 -469q149 175 223 458.5t74 569.5q0 251 -58.5 507.5t-154.5 416.5l63 8q152 -165 234 -414.5t82 -517.5q0 -313 -106.5 -598t-301.5 -455z" />
<glyph unicode="*" horiz-adv-x="919" d="M80 1118q0 34 18 86.5t41 52.5q26 0 135 -56.5t142 -84.5l-21 -59q-71 0 -193 17t-122 44zM182 817q0 4 2 6q44 60 113 127.5t106 91.5l52 -38q-10 -41 -52 -128.5t-86 -148.5q-4 -4 -10 -4q-28 0 -76.5 36t-48.5 58zM375 1434q0 11 25 17.5t57 6.5t57 -6.5t25 -17.5 q0 -74 -16.5 -169.5t-33.5 -136.5h-61q-17 42 -35 136.5t-18 169.5zM471 1008l51 36q37 -23 107.5 -89.5t113.5 -125.5q0 -1 1 -3t1 -3q0 -22 -49 -59t-75 -37q-7 0 -11 4q-44 63 -87 150t-52 127zM506 1122q33 28 141.5 85t134.5 57q23 0 41.5 -53.5t18.5 -86.5 q0 -27 -122.5 -44t-193.5 -17z" />
<glyph unicode="+" d="M150 510v117h313v313h117v-313h315v-117h-315v-315h-117v315h-313z" />
<glyph unicode="," horiz-adv-x="403" d="M39 -231q79 25 123.5 78.5t44.5 121.5v8q-12 -2 -33 -2q-76 0 -76 125q0 28 4 61t8 53l5 19q62 15 121 15q43 0 68.5 -64t25.5 -159q0 -110 -76 -201t-197 -115z" />
<glyph unicode="-" horiz-adv-x="798" d="M102 571h580l14 -67q-109 -53 -354 -53q-126 0 -229 18z" />
<glyph unicode="." horiz-adv-x="403" d="M98 100q0 28 4 61t8 53l5 19q73 15 116 15q74 0 74 -127q0 -26 -3.5 -58t-7.5 -51l-3 -18q-72 -19 -117 -19q-76 0 -76 125z" />
<glyph unicode="/" horiz-adv-x="669" d="M-61 -102l682 1638h110l-682 -1638h-110z" />
<glyph unicode="0" d="M59 567q0 139 37 251.5t101 185t149.5 111t183.5 38.5q94 0 176 -36t144.5 -105t98.5 -179t36 -249q0 -299 -130.5 -454t-348.5 -155q-199 0 -323 152t-124 440zM229 563q0 -487 293 -487t293 487q0 488 -293 488t-293 -488z" />
<glyph unicode="1" d="M205 1061q0 1 104.5 24t216 45.5t127.5 22.5q37 -19 37 -63v-973l254 -49q0 -68 -33 -68l-329 8l-334 -8q-33 0 -33 68l315 49v905l-272 -68q-20 0 -36.5 43.5t-16.5 63.5z" />
<glyph unicode="2" d="M59 66l377 335q57 52 94.5 90.5t82 96.5t67 121t22.5 131q0 109 -63.5 160t-161.5 51q-108 0 -201 -54l9 -149q0 -16 -31 -24.5t-51 -8.5q-1 0 -15.5 58t-29 122.5t-15.5 77.5q62 36 154.5 58t183.5 22q76 0 143.5 -16.5t125 -50.5t91 -94.5t33.5 -141.5q0 -70 -24 -138 t-58 -120.5t-94.5 -114t-109.5 -103t-127 -102.5l-236 -184l2 -8l588 51v160q0 33 84 33q1 0 12.5 -66t23 -139.5t11.5 -89.5q-6 -29 -49 -29h-791z" />
<glyph unicode="3" d="M115 -59q1 21 28.5 139.5t30.5 118.5q20 0 50 -8t30 -25l-6 -150q101 -55 215 -55q127 0 215 66.5t88 187.5q0 114 -101 192.5t-276 79.5l-12 70q82 10 147 40t104 71t59 87.5t20 94.5q0 83 -57.5 142t-155.5 59q-104 0 -191 -54l8 -149q0 -16 -31 -24.5t-51 -8.5 q-1 0 -15 58t-28 122t-16 78q150 80 332 80q72 0 135.5 -16.5t118 -50t86.5 -93t32 -137.5q0 -103 -76 -187.5t-194 -127.5q151 -27 238.5 -118.5t87.5 -203.5q0 -108 -62.5 -191.5t-158.5 -125t-207 -41.5q-104 0 -208 22t-179 58z" />
<glyph unicode="4" d="M31 215q0 27 84 231l331 816l150 -45l-424 -943h490v502q0 1 21 5.5t49 9t44 4.5q37 -19 37 -64v-457h203v-92h-203v-182l195 -47q0 -68 -31 -68q-2 1 -242 9l-278 -9q-31 0 -31 68l236 47v182h-574q-30 0 -43.5 6.5t-13.5 26.5z" />
<glyph unicode="5" d="M113 -59q1 13 15.5 77.5t28.5 122.5t15 58q22 0 52 -8t30 -25l-8 -150q101 -55 217 -55q127 0 214 66.5t87 187.5q0 114 -100.5 192t-272.5 78q-57 0 -115 -10l-59 47l21 568l612 51q28 0 40 -5.5t15 -23.5q0 -16 -11.5 -89.5t-23.5 -139.5t-14 -66q-82 0 -82 33v160 h-405l-45 -420q20 2 59 2q116 0 209.5 -20.5t155.5 -55t104 -83t60 -101.5t18 -113q0 -108 -63 -191.5t-159 -125t-206 -41.5q-105 0 -208.5 22t-180.5 58z" />
<glyph unicode="6" d="M100 451q0 124 36.5 237.5t98 206t154.5 181.5t192.5 159t225.5 143l55 -84q-444 -285 -549 -577h236q112 0 202.5 -38t148.5 -121.5t58 -199.5q0 -89 -36 -162.5t-96 -121t-136 -73.5t-158 -26q-83 0 -158.5 28.5t-137.5 84t-99 149.5t-37 214zM274 477 q0 -182 70.5 -288.5t181.5 -106.5q108 0 183 73t75 201q0 145 -69 203.5t-191 58.5q-93 0 -243 -30q-7 -68 -7 -111z" />
<glyph unicode="7" d="M111 1112q3 18 15 23.5t40 5.5l700 -41l37 55l58 -37l-525 -1257l-164 39l541 1110h-571v-160q0 -33 -82 -33q-2 0 -14 66t-23.5 139.5t-11.5 89.5z" />
<glyph unicode="8" d="M96 326q0 98 67.5 205t201.5 178q-224 137 -224 350q0 131 104.5 220t282.5 89q164 0 269.5 -90t105.5 -225q0 -88 -58 -184t-173 -162q46 -29 82 -54.5t75 -63t64.5 -76t42 -89.5t16.5 -107q0 -144 -118 -243t-318 -99q-185 0 -302.5 100t-117.5 251zM268 336 q0 -112 64 -186t186 -74q107 0 183.5 64.5t76.5 170.5q0 139 -160 242l-172 104q-84 -65 -131 -153.5t-47 -167.5zM303 1059q0 -132 180 -240l111 -65q72 58 108.5 136.5t36.5 151.5q0 97 -55 161.5t-158 64.5q-105 0 -164 -57.5t-59 -151.5z" />
<glyph unicode="9" d="M98 772q0 114 61.5 203t157 133.5t203.5 44.5q84 0 160.5 -29t139.5 -86t100.5 -152.5t37.5 -217.5q0 -126 -39.5 -244t-100.5 -209.5t-156 -183.5t-184.5 -159t-207.5 -144l-61 73q423 318 524 605h-219q-85 0 -159 23t-132 66.5t-91.5 115t-33.5 161.5zM272 772 q0 -280 275 -280q103 0 217 34q10 68 10 123q0 190 -65 295t-183 105q-109 0 -181.5 -73t-72.5 -204z" />
<glyph unicode=":" horiz-adv-x="403" d="M98 100q0 28 4 61t8 53l5 19q73 15 116 15q74 0 74 -127q0 -26 -3.5 -58t-7.5 -51l-3 -18q-72 -19 -117 -19q-76 0 -76 125zM98 707q0 28 4 61.5t8 52.5l5 19q73 14 116 14q74 0 74 -127q0 -26 -3.5 -58t-7.5 -51l-3 -18q-72 -18 -117 -18q-76 0 -76 125z" />
<glyph unicode=";" horiz-adv-x="403" d="M39 -231q79 25 123.5 78.5t44.5 121.5v8q-12 -2 -33 -2q-76 0 -76 125q0 28 4 61t8 53l5 19q62 15 121 15q43 0 68.5 -64t25.5 -159q0 -110 -76 -201t-197 -115zM98 707q0 28 4 61.5t8 52.5l5 19q73 14 116 14q74 0 74 -127q0 -26 -3.5 -58t-7.5 -51l-3 -18 q-72 -18 -117 -18q-76 0 -76 125z" />
<glyph unicode="&#x3c;" d="M150 510v117l745 331v-122l-612 -269l612 -266v-123z" />
<glyph unicode="=" d="M150 344v117h745v-117h-745zM150 676v117h745v-117h-745z" />
<glyph unicode="&#x3e;" d="M150 178v123l612 266l-612 269v122l745 -331v-117z" />
<glyph unicode="?" horiz-adv-x="880" d="M109 1343q127 31 237 31q186 0 305 -79.5t119 -215.5q0 -68 -36.5 -142.5t-89 -137t-105 -120.5t-89 -110.5t-36.5 -89.5v-102h-70q-16 141 -16 203q1 27 30.5 72t71.5 96t85.5 104.5t78 112t43.5 104.5q-2 70 -48 117.5t-108.5 66.5t-136.5 19q-57 0 -96 -8v-207 q0 -29 -86 -29zM272 76q0 23 4 49.5t8 41.5l5 15q74 13 117 13q73 0 73 -103q0 -21 -3.5 -46t-7.5 -40l-3 -14q-72 -17 -117 -17q-76 0 -76 101z" />
<glyph unicode="@" horiz-adv-x="1806" d="M102 242q0 181 76.5 357t205 311t310 218.5t377.5 83.5q285 0 459 -159t174 -437q0 -172 -70 -318.5t-198 -234.5t-285 -88q-70 0 -104 30.5t-37 98.5l-105 -49q-170 -80 -256 -80q-76 0 -111.5 57t-35.5 183q0 110 18 204t47 162.5t72.5 125.5t88.5 94.5t101 67.5 t104 46.5t103 30.5q44 0 154 -43l47 55h47q-45 -206 -94 -491.5t-49 -333.5q0 -39 18 -56.5t58 -17.5q59 0 110.5 24.5t88 67t64.5 96.5t45 116t25.5 122.5t8.5 118.5q0 248 -140.5 390.5t-369.5 142.5q-136 0 -262.5 -52.5t-222.5 -142t-168.5 -203t-110 -240t-37.5 -247.5 q0 -246 138.5 -387t367.5 -141q121 0 241.5 45t225.5 129l96 -48q-128 -97 -279.5 -149.5t-306.5 -52.5q-284 0 -456.5 159t-172.5 435zM647 215q0 -133 86 -133q50 0 137 41l144 65l110 641h-153q-87 0 -152 -53t-101.5 -143.5t-53.5 -195t-17 -222.5z" />
<glyph unicode="A" horiz-adv-x="1351" d="M-27 61l154 45l471 1328h156l475 -1328l153 -45q0 -61 -30 -61q-25 0 -203 8l-244 -8q-31 0 -31 61l185 45l-129 363l-563 -29l-113 -334l195 -45q0 -61 -31 -61q-7 0 -228 8l-186 -8q-31 0 -31 61zM408 559h491l-250 709z" />
<glyph unicode="B" horiz-adv-x="1253" d="M102 61l172 45v1221l-172 45q0 62 31 62q18 -1 211 -9q173 6 252 9h14q105 0 190 -30t137.5 -80t81 -112t28.5 -129q0 -100 -58.5 -186.5t-165.5 -130.5q163 -40 250.5 -143t87.5 -230q0 -167 -115 -280t-309 -113q-15 0 -377 16l-227 -16q-31 0 -31 61zM420 119 q158 -29 264 -29q78 0 140 25.5t98.5 68.5t55.5 95.5t19 111.5q0 61 -22 117.5t-63.5 102.5t-110 74t-154.5 28l-209 -25zM420 1327l18 -541h168q135 13 211 97.5t76 193.5q0 114 -81.5 196.5t-227.5 82.5z" />
<glyph unicode="C" horiz-adv-x="1314" d="M82 725q0 175 54.5 316t149 231t220 138t270.5 48q239 0 422 -123l-53 -305q-92 0 -92 29v227q-53 21 -135.5 36t-153.5 15q-150 0 -295 -49q-96 -71 -151.5 -222.5t-55.5 -344.5q0 -157 38 -279.5t106 -200t159 -117.5t199 -40q183 0 309 76l47 209q8 28 92 28l-16 -293 q-172 -129 -453 -129q-144 0 -263.5 47.5t-209 138.5t-139 235.5t-49.5 328.5z" />
<glyph unicode="D" horiz-adv-x="1531" d="M102 61l172 45v1221l-172 45q0 62 31 62q34 -1 227 -9l418 33q141 0 262 -45t213 -132t144.5 -225t52.5 -313q0 -190 -52 -336t-147 -236.5t-222.5 -136.5t-283.5 -46l-385 28l-227 -16q-31 0 -31 61zM426 125q182 -41 340 -41q109 0 200 39t159.5 116t106.5 200t38 282 q0 154 -38 274.5t-106.5 197t-159.5 116t-200 39.5q-178 0 -340 -39l20 -592z" />
<glyph unicode="E" horiz-adv-x="1230" d="M102 61l172 45v1221l-172 45q0 62 31 62q18 -1 211 -9l696 9q33 0 49 -3.5t17 -17.5l-49 -305q-88 0 -88 29v192l-543 -6l18 -541h525v-88l-525 -26l-18 -555h563l53 192q0 29 86 29l-16 -309q-1 -16 -13.5 -20.5t-45.5 -4.5l-705 16l-215 -16q-31 0 -31 61z" />
<glyph unicode="F" horiz-adv-x="1126" d="M102 61l172 45v1221l-172 45q0 62 31 62q18 -1 211 -9l635 9q33 0 48.5 -3.5t16.5 -17.5l-49 -305q-88 0 -88 29v192l-481 -6l18 -571l504 -2v-88l-506 -27l-16 -529l227 -45q0 -61 -30 -61q-89 0 -279 8l-211 -8q-31 0 -31 61z" />
<glyph unicode="G" horiz-adv-x="1361" d="M82 725q0 175 54.5 316t149 231t220 138t270.5 48q258 0 453 -123l-53 -305q-93 0 -93 29v227q-59 21 -149.5 36t-169.5 15q-150 0 -295 -49q-96 -71 -151.5 -222.5t-55.5 -344.5q0 -157 36.5 -279.5t102 -200t152.5 -117.5t190 -40q92 0 189.5 32t165.5 83l-35 428 l-379 22v88h537v-510l18 -80q-239 -172 -516 -172q-139 0 -255 47.5t-202.5 138.5t-135 235.5t-48.5 328.5z" />
<glyph unicode="H" horiz-adv-x="1615" d="M102 61l172 45v1221l-172 45q0 62 31 62q18 -1 211 -9l215 9q31 0 31 -62l-164 -45l18 -541h727l19 541l-164 45q0 62 31 62q25 -1 215 -9l211 9q30 0 30 -62l-172 -45v-1221l172 -45q0 -61 -30 -61q-18 0 -211 8l-215 -8q-31 0 -31 61l164 45l-21 590l-725 -28l-18 -562 l164 -45q0 -61 -31 -61q-25 0 -215 8l-211 -8q-31 0 -31 61z" />
<glyph unicode="I" horiz-adv-x="706" d="M102 61l177 45l-11 611l11 610l-177 45q0 62 31 62q36 -1 229 -9l211 9q31 0 31 -62l-176 -45l10 -610l-10 -611l176 -45q0 -61 -31 -61q-21 0 -211 8l-229 -8q-31 0 -31 61z" />
<glyph unicode="J" horiz-adv-x="645" d="M-8 -375q280 368 280 701v1001l-194 45q0 62 33 62q47 -1 237 -9l227 9q31 0 31 -64l-172 -43v-946q0 -202 -99 -399t-282 -400z" />
<glyph unicode="K" horiz-adv-x="1275" d="M102 61l172 45v1221l-172 45q0 62 31 62q18 -1 211 -9l215 9q31 0 31 -62l-164 -45l18 -565h234l287 569l-148 41q0 62 31 62l166 -9l194 9q16 0 22.5 -21.5t6.5 -40.5l-137 -45l-340 -596q59 -26 114 -119l297 -506l164 -45q0 -61 -30 -61h-269l-329 604q-30 58 -62 84 l-201 -24l-18 -558l207 -45q0 -61 -31 -61q-68 0 -258 8l-211 -8q-31 0 -31 61z" />
<glyph unicode="L" horiz-adv-x="1067" d="M100 61l176 45l-10 611l10 610l-176 45q0 62 31 62q36 -1 229 -9l211 9q31 0 31 -62l-176 -45l10 -610l-10 -604h481l54 192q9 29 86 29l-17 -309q-1 -16 -13.5 -20.5t-45.5 -4.5l-611 16l-229 -16q-31 0 -31 61z" />
<glyph unicode="M" horiz-adv-x="1859" d="M51 61l174 45l64 1219l-168 45q0 64 31 64q79 -1 331 -9l428 -1048l473 1048l324 9q31 0 31 -64l-168 -45l63 -1219l174 -45q0 -61 -30 -61q-64 0 -242 8l-231 -8q-33 0 -33 61l194 45l-43 1125l-518 -1129h-39l-473 1115l-47 -1111l195 -45q0 -61 -33 -61l-225 8 l-201 -8q-31 0 -31 61z" />
<glyph unicode="N" horiz-adv-x="1617" d="M102 61l168 45v1219l-168 45q0 64 31 64q25 -1 277 -9l862 -1167l-12 1069l-216 45q0 62 33 62l248 -9l180 9q31 0 31 -62l-154 -45l-6 -1327h-114l-881 1194l16 -1088l217 -45q0 -61 -32 -61l-248 8l-201 -8q-31 0 -31 61z" />
<glyph unicode="O" horiz-adv-x="1529" d="M82 725q0 175 54.5 316t149 231t220 138t270.5 48q141 0 262 -45t213 -132t144.5 -225t52.5 -313q0 -190 -52 -338t-147 -241t-222.5 -141t-283.5 -48q-144 0 -263.5 47.5t-209 138.5t-139 235.5t-49.5 328.5zM262 721q0 -159 38 -283.5t106 -203.5t159 -119.5t199 -40.5 q109 0 200 40.5t159.5 119.5t106.5 203.5t38 283.5q0 154 -38 274.5t-106.5 197t-159.5 116t-200 39.5q-147 0 -295 -50q-96 -72 -151.5 -226.5t-55.5 -350.5z" />
<glyph unicode="P" horiz-adv-x="1153" d="M102 61l172 45v1221l-172 45q0 62 31 62q18 -1 211 -9l324 9q194 0 309 -118.5t115 -297.5q0 -168 -133 -292t-381 -148l-138 -13l-14 -459l227 -45q0 -61 -30 -61q-89 0 -279 8l-211 -8q-31 0 -31 61zM426 1327l20 -610l-2 -39l150 -8q89 0 158.5 30.5t110 82t61 111.5 t20.5 126q0 63 -19 120.5t-55.5 104.5t-98.5 75t-140 28z" />
<glyph unicode="Q" horiz-adv-x="1529" d="M82 725q0 175 54.5 316t149 231t220 138t270.5 48q141 0 262 -45t213 -132t144.5 -225t52.5 -313q0 -336 -155.5 -528.5t-420.5 -230.5l261 -414q-68 -43 -123 -43q-52 0 -68 39l-188 409q-147 0 -269 47.5t-212.5 139t-140.5 235.5t-50 328zM262 721q0 -159 38 -283.5 t106 -203.5t159 -119.5t199 -40.5q109 0 200 40.5t159.5 119.5t106.5 203.5t38 283.5q0 154 -38 274.5t-106.5 197t-159.5 116t-200 39.5q-147 0 -295 -50q-96 -72 -151.5 -226.5t-55.5 -350.5z" />
<glyph unicode="R" horiz-adv-x="1220" d="M102 61l172 45v1221l-172 45q0 62 31 62q18 -1 211 -9q245 6 314 9h6q124 0 218 -55t141.5 -143.5t47.5 -195.5q0 -71 -32 -141t-100.5 -130.5t-162.5 -92.5q49 -28 98 -111l263 -459l163 -45q0 -61 -30 -61h-269l-294 557q-38 68 -72 90l-193 -31l-16 -510l207 -45 q0 -61 -31 -61q-68 0 -258 8l-211 -8q-31 0 -31 61zM426 1327l18 -594l129 -8q89 0 158.5 27.5t110.5 74t61.5 101.5t20.5 116q0 58 -19 111t-56 97t-99 70t-140 26z" />
<glyph unicode="S" horiz-adv-x="1134" d="M113 74q5 42 16 124.5t20.5 148t10.5 65.5q88 0 88 -25v-227q63 -40 150 -63t167 -23q146 0 219.5 70t73.5 178q0 60 -33 120t-112 105l-363 207q-103 58 -156 144.5t-53 182.5q0 73 31.5 140.5t89 120.5t148 84.5t200.5 31.5q157 0 355 -74l-54 -315q-86 0 -86 29v207 q-108 51 -227 51q-94 0 -173.5 -37t-129.5 -117q-10 -36 -10 -82q0 -141 153 -229l353 -201q116 -67 178.5 -159t62.5 -183q0 -177 -135 -275t-348 -98q-206 0 -436 99z" />
<glyph unicode="T" horiz-adv-x="1153" d="M10 1413q1 14 17 17.5t49 3.5l499 -11l502 11q33 0 49 -4t17 -17l-23 -321q-86 0 -86 28l-30 211l-353 -8l11 -606l-11 -611l232 -45q0 -61 -31 -61q-80 0 -270 8l-281 -8q-31 0 -31 61l232 45l-10 611l10 606l-352 8l-31 -211q0 -28 -86 -28z" />
<glyph unicode="U" horiz-adv-x="1501" d="M82 1370q0 64 31 64q13 -1 206 -9l236 9q33 0 33 -62l-195 -45v-887q0 -162 95.5 -257t293.5 -95q98 0 176 29.5t125 79.5t71 112.5t24 132.5v885l-195 45q0 62 33 62l223 -9l160 9q31 0 31 -62l-134 -45v-881q0 -212 -138.5 -341.5t-379.5 -129.5q-261 0 -403 114.5 t-142 356.5v881z" />
<glyph unicode="V" horiz-adv-x="1316" d="M0 1372q0 62 31 62q27 -1 205 -9l219 9q30 0 30 -62l-172 -45l379 -1132l365 1132l-174 45q0 62 30 62l213 -9q169 7 160 9q31 -2 31 -62l-133 -45l-447 -1327h-143l-461 1327z" />
<glyph unicode="W" horiz-adv-x="1884" d="M0 1372q0 62 31 62q27 -1 205 -9l219 9q30 0 30 -62l-174 -45l297 -1096l340 1102h72v-137l301 -965l305 1096l-174 45q0 62 31 62l211 -9q160 7 160 9h-1q31 -4 31 -62l-133 -45l-369 -1327h-155l-285 915l-280 -915h-156l-373 1327z" />
<glyph unicode="X" horiz-adv-x="1425" d="M31 61l153 45l445 617l-402 604l-153 45q0 62 30 62q44 -1 222 -9l219 9q30 0 30 -62l-157 -45l317 -479l336 479l-168 45q0 62 31 62l227 -9q161 7 161 9h-1q31 -2 31 -62l-133 -45l-416 -579l428 -642l164 -45q0 -61 -31 -61q-41 0 -219 8l-262 -8q-31 0 -31 61l188 45 l-346 519l-362 -519l188 -45q0 -61 -31 -61l-247 8l-183 -8q-28 0 -28 61z" />
<glyph unicode="Y" horiz-adv-x="1187" d="M0 1372q0 62 31 62q20 -1 198 -9l215 9q31 0 31 -62l-174 -45l328 -670l293 670l-168 45q0 62 30 62l213 -9q169 7 160 9q31 -2 31 -62l-133 -45l-365 -756v-465l215 -45q0 -61 -31 -61q-68 0 -258 8l-270 -8q-31 0 -31 61l215 45v461l-397 760z" />
<glyph unicode="Z" horiz-adv-x="1251" d="M57 16l877 1299h-635v-187q0 -28 -86 -28l-51 309q3 25 43 25q12 0 860 -23l72 47l45 -35l-883 -1310h702v196q0 29 86 29l52 -313q-1 -16 -13.5 -20.5t-46.5 -4.5l-921 10l-66 -35z" />
<glyph unicode="[" horiz-adv-x="505" d="M150 -133q0 346 90 643q-90 297 -90 643q0 39 3 86t6.5 80t9.5 91l9 87h318q34 0 34 -70q0 -1 -48.5 -9.5t-105.5 -16.5t-75 -8v-1766q18 0 75 -8.5t105.5 -17t48.5 -9.5q0 -69 -34 -69h-318q-28 212 -28 344z" />
<glyph unicode="\" horiz-adv-x="669" d="M-61 1536h110l682 -1638h-110z" />
<glyph unicode="]" horiz-adv-x="505" d="M-25 -408q0 1 49 9.5t106 17t75 8.5v1766q-18 0 -75 8t-106 16.5t-49 9.5q0 70 35 70h318q28 -212 28 -344q0 -346 -90 -643q90 -297 90 -643q0 -39 -3 -86t-6.5 -80t-9.5 -91l-9 -87h-318q-35 0 -35 69z" />
<glyph unicode="^" d="M154 461l311 588h117l311 -588h-123l-248 475l-246 -475h-122z" />
<glyph unicode="_" horiz-adv-x="1032" d="M82 -25h868v-116h-868v116z" />
<glyph unicode="`" horiz-adv-x="649" d="M102 1255q0 27 20.5 76t31.5 62q87 -70 185 -143.5t153 -111.5l55 -38l-23 -39q-87 24 -204.5 68.5t-206.5 101.5q-11 5 -11 24z" />
<glyph unicode="a" horiz-adv-x="1067" d="M0 61l119 31l346 909h133l350 -907l119 -33q0 -61 -35 -61q-37 0 -166 6l-178 -6q-37 0 -37 63l140 29l-82 227l-381 -20l-74 -207l137 -29q0 -63 -37 -63q-16 0 -178 6l-141 -6q-35 0 -35 61zM362 406h314l-158 438z" />
<glyph unicode="b" horiz-adv-x="1001" d="M113 63l131 29v817l-131 29q0 63 37 63q30 0 169 -6l183 6q158 0 246 -74t88 -177q0 -63 -36.5 -120.5t-101.5 -92.5q109 -32 165.5 -103t56.5 -155q0 -118 -88.5 -198.5t-237.5 -80.5l-275 12l-169 -12q-37 0 -37 63zM377 102q99 -16 180 -16q104 0 159.5 57t55.5 136 q0 80 -65.5 142t-176.5 66l-139 -16zM377 907l14 -346h105q94 7 146 61t52 123q0 70 -57 123t-152 56z" />
<glyph unicode="c" horiz-adv-x="1017" d="M72 506q0 123 41 221.5t112 161t165.5 96t203.5 33.5q184 0 324 -90l-44 -226q-88 0 -88 33v148q-86 28 -202 28q-100 0 -207 -30q-66 -48 -107 -150t-41 -227q0 -205 99 -313.5t256 -108.5q137 0 219 47l35 139q11 27 88 27l-13 -217q-134 -94 -344 -94 q-145 0 -255.5 56.5t-176 176t-65.5 289.5z" />
<glyph unicode="d" horiz-adv-x="1191" d="M113 63l131 29v817l-131 29q0 63 37 63q30 0 169 -6q42 3 130.5 11.5t130.5 11.5q87 0 164.5 -15t149.5 -52t123 -93t82 -143t31 -197q0 -260 -143.5 -393t-384.5 -133l-280 20l-172 -12q-37 0 -37 63zM381 102q109 -20 237 -20q158 0 255.5 107t97.5 315q0 418 -387 418 q-84 0 -203 -21l20 -387z" />
<glyph unicode="e" horiz-adv-x="987" d="M113 63l131 29v817l-131 29q0 63 37 63q30 0 169 -6l496 6q19 0 26 -0.5t18 -2.5t14.5 -8.5t3.5 -16.5l-37 -217q-84 0 -84 30v119l-375 -4l18 -340h379v-84l-381 -22l-16 -355h393l35 117q6 22 23.5 28.5t62.5 6.5l-12 -227q-3 -16 -14.5 -20.5t-43.5 -4.5l-506 12 l-169 -12q-37 0 -37 63z" />
<glyph unicode="f" horiz-adv-x="903" d="M113 63l131 29v817l-131 29q0 63 37 63q30 0 169 -6l451 6q46 0 55 -9q6 -7 6 -19l-36 -217q-84 0 -84 30v119l-330 -4l18 -360h365v-84l-367 -23l-14 -342l174 -29q0 -63 -35 -63l-203 12l-169 -12q-37 0 -37 63z" />
<glyph unicode="g" horiz-adv-x="1062" d="M72 508q0 122 40.5 220t112 160.5t165 96t202.5 33.5q191 0 340 -90l-43 -226q-86 0 -86 33v148q-96 28 -219 28q-100 0 -207 -30q-67 -48 -106.5 -149.5t-39.5 -227.5q0 -206 97.5 -314t255.5 -108q65 0 132 18t111 52l-22 276q-52 1 -156.5 7t-122.5 7v84h418v-358 l17 -59q-183 -125 -394 -125q-223 0 -359 134.5t-136 389.5z" />
<glyph unicode="h" horiz-adv-x="1296" d="M113 63l131 29v817l-131 29q0 63 37 63q30 0 169 -6l166 6q35 0 35 -61l-137 -31l16 -348h498l16 348l-137 29q0 63 37 63q31 0 170 -6l166 6q35 0 35 -61l-131 -31v-817l131 -29q0 -63 -35 -63l-166 12l-170 -12q-37 0 -37 63l137 29l-16 383l-500 -20l-14 -363l137 -29 q0 -63 -35 -63l-166 12l-169 -12q-37 0 -37 63z" />
<glyph unicode="i" horiz-adv-x="632" d="M113 63l131 29v817l-131 29q0 63 37 63q30 0 169 -6l166 6q35 0 35 -61l-131 -31v-817l131 -29q0 -63 -35 -63l-166 12l-169 -12q-37 0 -37 63z" />
<glyph unicode="j" horiz-adv-x="571" d="M14 -246q209 258 209 479v674q-21 5 -81 15.5t-81 15.5q0 63 37 63q54 0 193 -6l172 6q37 0 37 -65l-131 -29v-635q0 -263 -291 -561z" />
<glyph unicode="k" horiz-adv-x="1042" d="M98 63l131 29v817l-131 29q0 63 37 63q31 0 170 -6l146 6q34 0 34 -61l-116 -31l16 -366h145l203 368l-86 27q0 63 35 63l102 -6l142 6q19 0 27 -21.5t8 -39.5l-105 -33l-229 -389l338 -530l-103 -31l-360 510l-119 -14l-14 -361l155 -29q0 -63 -35 -63l-184 12l-170 -12 q-37 0 -37 63z" />
<glyph unicode="l" horiz-adv-x="880" d="M113 63l131 29v817l-131 29q0 11 2.5 24t11.5 26t23 13l169 -6l166 6q35 0 35 -61l-131 -31v-809h330l35 117q6 22 23.5 28.5t62.5 6.5l-13 -227q-3 -16 -14.5 -20.5t-42.5 -4.5l-451 12l-169 -12q-37 0 -37 63z" />
<glyph unicode="m" horiz-adv-x="1517" d="M102 63l131 29q7 137 24 407.5t24 407.5l-129 29q0 65 34 65l260 -12l304 -690l335 690l244 12q16 0 25.5 -21t9.5 -44l-129 -31l49 -813q17 -5 65.5 -14.5t65.5 -14.5q0 -63 -35 -63l-174 12l-170 -12q-37 0 -37 63l144 31l-31 703l-356 -727h-47l-326 712l-27 -690 q35 -8 142 -29q0 -63 -39 -63l-168 12l-154 -12q-35 0 -35 63z" />
<glyph unicode="n" horiz-adv-x="1292" d="M102 63l136 31l-7 813l-129 29q0 65 37 65q29 0 215 -6l609 -770l-13 682l-162 29q0 65 35 65l193 -6l139 6q35 -4 35 -63l-117 -31l-6 -907h-92l-635 788q2 -115 8 -347t8 -349q25 -6 87 -16t75 -13q0 -63 -37 -63l-188 12l-154 -12q-37 0 -37 63z" />
<glyph unicode="o" horiz-adv-x="1171" d="M72 506q0 123 41 221.5t112 161t165.5 96t203.5 33.5q105 0 195.5 -31.5t160.5 -92t110 -157.5t40 -219q0 -132 -39.5 -235t-110.5 -167.5t-167 -98t-212 -33.5q-146 0 -257 56.5t-176.5 176t-65.5 289.5zM231 504q0 -209 98.5 -319.5t256.5 -110.5t256 110.5t98 319.5 q0 202 -98 309t-256 107q-99 0 -209 -31q-66 -50 -106 -153.5t-40 -231.5z" />
<glyph unicode="p" horiz-adv-x="929" d="M113 63l131 29v817l-131 29q0 63 37 63q30 0 169 -6l226 6q147 0 235 -88t88 -221q0 -128 -101.5 -222t-287.5 -103l-82 -5l-14 -270l174 -29q0 -63 -35 -63l-203 12l-169 -12q-37 0 -37 63zM383 905l18 -450l88 -4q115 4 178.5 76t63.5 167q0 59 -22 108.5t-71.5 83 t-119.5 34.5z" />
<glyph unicode="q" horiz-adv-x="1171" d="M72 506q0 123 41 221.5t112 161t165.5 96t203.5 33.5q105 0 195.5 -31.5t160.5 -92t110 -157.5t40 -219q0 -203 -87 -331t-243 -177l324 -256l-56 -80l-471 310q-223 2 -359 135.5t-136 386.5zM231 504q0 -209 98.5 -319.5t256.5 -110.5t256 110.5t98 319.5 q0 202 -98 309t-256 107q-99 0 -209 -31q-66 -50 -106 -153.5t-40 -231.5z" />
<glyph unicode="r" horiz-adv-x="1001" d="M113 63l131 29v817l-131 29q0 63 37 63q30 0 169 -6l209 6q149 0 237.5 -80t88.5 -198q0 -74 -49.5 -144t-142.5 -106l301 -485l-105 -31l-340 483l-121 -18l-14 -330l156 -29q0 -63 -35 -63l-185 12l-169 -12q-37 0 -37 63zM383 909l18 -389l74 -2q115 4 179.5 65.5 t64.5 141.5q0 78 -56 136t-159 59z" />
<glyph unicode="s" horiz-adv-x="884" d="M92 53q3 31 14 93t22 110.5t13 48.5q78 0 78 -31v-147q91 -49 217 -49q101 0 152 42.5t51 110.5q0 36 -24.5 76t-75.5 68l-263 141q-76 42 -118.5 105t-42.5 129q0 110 95.5 189t260.5 79q120 0 274 -53l-43 -236q-88 0 -88 31v135q-79 27 -153 27q-143 0 -207 -95 q-8 -24 -8 -53q0 -89 106 -145l256 -135q90 -48 137.5 -113t47.5 -131q0 -127 -102 -196.5t-265 -69.5q-159 0 -334 69z" />
<glyph unicode="t" horiz-adv-x="935" d="M41 975q2 13 11.5 19t18.5 7t31 0l369 -8l363 8q23 0 32 -0.5t18 -6.5t11 -19l-21 -242q-81 0 -81 31l-21 143q-38 0 -116 -2t-117 -2v-805l166 -35q0 -63 -35 -63l-199 12l-203 -12q-39 0 -39 63l166 35v805l-231 4l-21 -143q0 -31 -82 -31z" />
<glyph unicode="u" horiz-adv-x="1185" d="M92 936q0 65 35 65q11 0 154 -6l170 6q38 0 38 -63l-141 -31v-596q0 -105 65.5 -166t202.5 -61q135 0 206 66.5t71 162.5v594l-143 31q0 63 38 63l164 -6l111 6q41 0 41 -63l-96 -31v-590q0 -152 -105.5 -242.5t-288.5 -90.5q-411 0 -411 333v590z" />
<glyph unicode="v" horiz-adv-x="1054" d="M31 940q0 61 39 61q18 0 149 -6l160 6q35 0 35 -63l-123 -29l254 -737q38 114 122.5 360t127.5 377q-60 15 -123 29q0 63 37 63l161 -6l117 6q37 -4 37 -61l-100 -31l-328 -909h-127l-338 907z" />
<glyph unicode="w" horiz-adv-x="1466" d="M31 940q0 61 37 61l149 -6l160 6q37 0 37 -63l-125 -29q27 -98 92.5 -335t103.5 -379l240 735h49l232 -735l202 714q-18 4 -61 14t-64 15q0 63 39 63l162 -6l117 6q35 -4 35 -63l-99 -31l-270 -907h-137l-197 592q-13 -39 -192 -592h-138l-274 907z" />
<glyph unicode="x" horiz-adv-x="1159" d="M61 61l121 33l320 412l-287 401l-117 31q0 63 37 63l146 -6l172 6q36 0 36 -63l-108 -29q175 -242 215 -297q38 52 110.5 149.5t110.5 149.5q-26 7 -115 27q0 63 37 63l170 -6l117 6q35 -4 35 -61l-100 -33q-42 -53 -297 -389q57 -81 162.5 -226.5t142.5 -197.5 q16 -5 64.5 -15.5t64.5 -15.5q0 -63 -37 -63l-164 12l-174 -12q-37 0 -37 63l115 27q-43 59 -120.5 168t-113.5 158q-43 -58 -119.5 -163t-119.5 -163q23 -6 114 -27q0 -63 -36 -63l-170 12l-138 -12q-37 0 -37 61z" />
<glyph unicode="y" horiz-adv-x="958" d="M31 940q0 61 39 61q12 0 143 -6l158 6q35 0 35 -63l-119 -29q35 -65 105 -202.5t112 -214.5l201 417q-18 5 -60.5 14.5t-62.5 14.5q0 63 36 63l156 -6l119 6q35 -4 35 -61l-101 -33l-264 -508v-305l146 -31q0 -63 -35 -63l-178 12l-183 -12q-39 0 -39 63l146 31v303 l-287 510z" />
<glyph unicode="z" horiz-adv-x="980" d="M61 25l633 870h-430v-113q0 -32 -84 -32l-37 223q0 28 43 28l619 -22l65 41l50 -37l-639 -883h481v123q0 31 84 31l37 -223q0 -19 -12.5 -25t-43.5 -6l-661 18l-66 -36z" />
<glyph unicode="{" horiz-adv-x="557" d="M86 483v56l205 55q-90 256 -90 559q0 39 3 86t6.5 80t9.5 91l9 87h318q35 0 35 -70q0 -1 -51.5 -9.5t-111.5 -16.5t-79 -8q0 -165 11 -305.5t25 -215t25 -142t11 -103.5q0 -90 -117 -109v-16q117 -19 117 -107q0 -36 -11 -103.5t-25 -142.5t-25 -216t-11 -306 q19 0 79 -8.5t111.5 -17t51.5 -9.5q0 -69 -35 -69h-318q-28 212 -28 344q0 305 90 561z" />
<glyph unicode="|" horiz-adv-x="552" d="M205 -426v1804h143v-1804h-143z" />
<glyph unicode="}" horiz-adv-x="557" d="M-25 -408q0 1 51.5 9.5t111.5 17t79 8.5q0 165 -11.5 305.5t-24.5 215t-24.5 142t-11.5 103.5q0 90 117 109v16q-117 19 -117 107q0 36 11.5 103.5t24.5 142.5t24.5 216t11.5 306q-19 0 -79 8t-111.5 16.5t-51.5 9.5q0 70 35 70h318q28 -212 28 -344q0 -305 -90 -561 l205 -55v-56l-205 -55q90 -256 90 -559q0 -39 -3 -86t-6.5 -80t-9.5 -91l-9 -87h-318q-35 0 -35 69z" />
<glyph unicode="~" d="M133 563q81 90 211 90q62 0 184 -25.5t179 -25.5q89 0 159 55l45 -75q-83 -95 -213 -95q-63 0 -185 26t-177 26q-90 0 -156 -52z" />
<glyph unicode="&#xa1;" horiz-adv-x="526" d="M160 -489l86 1071h67l56 -535l-95 -536h-114zM170 842q0 21 3.5 46t6.5 40l4 14q72 16 117 16q76 0 76 -100q0 -23 -4.5 -49.5t-8.5 -41.5l-4 -15q-73 -13 -116 -13q-74 0 -74 103z" />
<glyph unicode="&#xa2;" d="M184 573q0 209 109.5 335t284.5 149l8 119h82l-9 -115q127 -3 236 -51q-2 -14 -16 -78t-28 -122t-15 -58q-21 0 -51.5 8t-30.5 24l8 150q-69 13 -111 16l-55 -770q18 -4 55 -4q98 0 211 51q27 -24 35 -61q-131 -88 -274 -88h-33l-10 -150h-82l10 162 q-149 34 -236.5 156.5t-87.5 326.5zM344 575q0 -138 44.5 -232t127.5 -136l53 739q-116 -19 -170.5 -111t-54.5 -260z" />
<glyph unicode="&#xa3;" d="M92 66q100 106 141 197t41 179q0 42 -10 97h-137v75h123q-37 152 -37 234q0 156 84.5 230.5t228.5 74.5q182 0 332 -80q-2 -14 -16 -78t-28 -122t-15 -58q-20 0 -51 8.5t-31 24.5l8 149q-87 54 -190 54q-173 0 -173 -201q0 -34 3.5 -69.5t7 -57t11 -59t9.5 -50.5h320v-75 h-310q0 -6 1.5 -19.5t1.5 -19.5q0 -87 -36.5 -183.5t-131.5 -232.5l2 -8l567 51v174q0 33 84 33q1 0 12.5 -68.5t23 -144.5t11.5 -92q-6 -29 -49 -29h-750z" />
<glyph unicode="&#xa5;" d="M53 1067q0 18 7 39.5t22 21.5l160 -8l149 8q16 0 22.5 -21.5t6.5 -39.5l-121 -41l250 -489l246 489l-127 41q0 61 28 61l140 -8l127 8q28 0 28 -61l-96 -45l-211 -408h168v-75h-207l-41 -82v-15h248v-75h-248v-261l215 -45q0 -61 -31 -61q-68 0 -258 8l-270 -8 q-31 0 -31 61l215 45v261h-239v75h239v13l-45 84h-194v75h155l-210 408z" />
<glyph unicode="&#xa6;" horiz-adv-x="552" d="M205 293h143v-719h-143v719zM205 659v719h143v-719h-143z" />
<glyph unicode="&#xa7;" horiz-adv-x="874" d="M41 -143l53 315q86 0 86 -29v-206q44 -9 96 -9q74 0 136.5 19t108.5 66.5t48 117.5q-10 39 -52 87t-94.5 92t-103.5 86t-85.5 82t-34.5 69q0 83 43 156t157 151q-105 85 -166 159t-61 150q0 136 119 215.5t305 79.5q111 0 238 -31l-54 -315q-86 0 -86 29v207q-39 8 -96 8 q-74 0 -136.5 -19t-108.5 -66.5t-48 -117.5q10 -39 52.5 -87t94.5 -92t103.5 -86t86 -82t34.5 -69q0 -55 -15.5 -102t-61.5 -100.5t-124 -104.5q51 -42 84 -73t69.5 -72t55 -82.5t18.5 -81.5q0 -136 -118.5 -215.5t-304.5 -79.5q-111 0 -238 31zM315 612q0 -100 88 -100 q18 0 47 9t48 17l20 9q41 68 41 125q0 100 -88 100q-18 0 -47 -9t-48 -17l-20 -9q-41 -68 -41 -125z" />
<glyph unicode="&#xa8;" horiz-adv-x="765" d="M143 1221q0 69 15 114q67 15 100 15t48.5 -31.5t15.5 -77.5q0 -69 -13 -108q-65 -19 -100 -19q-66 0 -66 107zM446 1221q0 69 15 114q67 15 100 15t48.5 -31.5t15.5 -77.5q0 -69 -13 -108q-65 -19 -100 -19q-66 0 -66 107z" />
<glyph unicode="&#xa9;" horiz-adv-x="1282" d="M61 1024q0 158 77.5 291.5t211 211t291.5 77.5t291.5 -77.5t211 -211t77.5 -291.5t-77.5 -291.5t-211 -211t-291.5 -77.5t-291.5 77.5t-211 211t-77.5 291.5zM137 1024q0 -138 67 -254t183 -183t254 -67t254 67t183 183t67 254t-67 254t-183 183t-254 67t-254 -67 t-183 -183t-67 -254zM324 1036q0 175 99.5 273t250.5 98q121 0 221 -68l-29 -165q-69 0 -69 24v105q-70 20 -129 20q-72 0 -136 -23q-41 -35 -67.5 -107t-26.5 -159q0 -145 64 -222t166 -77q81 0 137 33l22 100q7 21 74 21l-8 -162q-92 -68 -236 -68q-149 0 -241 97t-92 280 z" />
<glyph unicode="&#xaa;" horiz-adv-x="641" d="M-2 852l70 18l206 541h84l209 -539l72 -20q0 -43 -31 -43q-20 0 -98 4l-104 -4q-31 0 -31 45l82 18l-47 127l-211 -12l-43 -117l82 -14q0 -47 -31 -47l-96 4q-13 0 -43 -2t-41 -2q-12 0 -20.5 11.5t-8.5 31.5zM47 715h551l12 -58q-102 -47 -334 -47q-106 0 -219 17z M221 1059h166l-84 229z" />
<glyph unicode="&#xab;" horiz-adv-x="942" d="M61 436v58l385 415l60 -49l-266 -395l266 -395l-60 -50zM395 436v58l385 415l60 -49l-267 -395l267 -395l-60 -50z" />
<glyph unicode="&#xac;" d="M150 510v117h745v-117h-745zM784 281v346h111v-346h-111z" />
<glyph unicode="&#xad;" horiz-adv-x="798" d="M102 571h580l14 -67q-109 -53 -354 -53q-126 0 -229 18z" />
<glyph unicode="&#xae;" horiz-adv-x="1282" d="M61 1024q0 158 77.5 291.5t211 211t291.5 77.5t291.5 -77.5t211 -211t77.5 -291.5t-77.5 -291.5t-211 -211t-291.5 -77.5t-291.5 77.5t-211 211t-77.5 291.5zM137 1024q0 -138 67 -254t183 -183t254 -67t254 67t183 183t67 254t-67 254t-183 183t-254 67t-254 -67 t-183 -183t-67 -254zM379 723l84 22v576l-84 20q0 54 27 54l100 -6l156 6q100 0 157.5 -59.5t57.5 -145.5q0 -51 -36 -100t-98 -78q10 -8 37 -47l125 -226l72 -16q0 -51 -29 -51h-127l-147 276q-17 27 -27 37l-76 -12l-8 -228l101 -22q0 -51 -29 -51q-33 0 -125 4l-104 -4 q-27 0 -27 51zM563 1321l10 -272h50q76 1 115.5 43t39.5 100q0 54 -35.5 95t-101.5 42z" />
<glyph unicode="&#xaf;" horiz-adv-x="862" d="M143 1167v129h576v-129h-576z" />
<glyph unicode="&#xb0;" horiz-adv-x="651" d="M41 1184q0 118 83 201t202 83q118 0 201 -83t83 -201q0 -119 -83 -202t-201 -83t-201.5 83.5t-83.5 201.5zM135 1184q0 -80 55.5 -135.5t135.5 -55.5q79 0 133.5 55.5t54.5 135.5t-54 134t-134 54t-135.5 -54.5t-55.5 -133.5z" />
<glyph unicode="&#xb1;" d="M150 -25v117h745v-117h-745zM150 510v117h313v313h117v-313h315v-117h-315v-315h-117v315h-313z" />
<glyph unicode="&#xb2;" horiz-adv-x="839" d="M66 434l290 262q42 37 70.5 67t61.5 72.5t50 90.5t17 98q0 76 -48.5 113t-121.5 37q-79 0 -149 -31l4 -88q0 -13 -30.5 -22t-47.5 -9q-37 145 -41 180q116 58 266 58q58 0 110 -13t97 -40t71.5 -74.5t26.5 -110.5q0 -52 -18 -103.5t-45.5 -94.5t-70.5 -88.5t-83.5 -80 t-93.5 -75.5l-166 -127l412 32v86q0 35 65 35q1 0 11.5 -45t21 -95t10.5 -60q-2 -15 -10.5 -22t-32.5 -7h-586zM195 440v45h26l19 -45h-45z" />
<glyph unicode="&#xb3;" horiz-adv-x="839" d="M117 420q2 16 25.5 98t27.5 82q16 0 39.5 -7.5t23.5 -23.5l-4 -88q67 -30 166 -30q76 0 131.5 42t55.5 119q0 73 -77 123t-212 51l-12 70q131 14 197.5 66t66.5 125q0 57 -40 92t-110 35q-66 0 -129 -29l4 -90q0 -13 -31.5 -22t-48.5 -9q-36 164 -40 180q119 58 251 58 q72 0 131.5 -19.5t102.5 -69.5t43 -124q0 -64 -41.5 -119.5t-106.5 -91.5q86 -25 135.5 -86.5t49.5 -133.5q0 -115 -93.5 -185.5t-220.5 -70.5q-150 0 -284 58z" />
<glyph unicode="&#xb4;" horiz-adv-x="649" d="M102 1100q199 135 394 293q10 -13 30.5 -62t20.5 -76q0 -19 -10 -24q-158 -101 -412 -170z" />
<glyph unicode="&#xb5;" horiz-adv-x="1042" d="M20 915q0 1 53 11.5t113.5 21t75.5 10.5q33 -19 33 -57v-606q0 -104 48 -151.5t128 -47.5q63 0 136.5 27.5t140.5 75.5v641h-146q-29 0 -29 75q0 1 64.5 11.5t136 21t86.5 10.5q33 -19 33 -57v-764q0 -73 47 -98l-25 -64q-63 0 -107.5 32t-55.5 99q-65 -43 -131.5 -75.5 t-102.5 -44t-47 -11.5q-127 0 -209 56l21 -439h-133v1248h-101q-29 0 -29 75z" />
<glyph unicode="&#xb6;" horiz-adv-x="1210" d="M102 1026q0 98 35.5 175t93.5 124.5t138 78t160.5 42.5t170.5 12q102 0 207.5 -15.5t163 -31t57.5 -20.5q0 -76 -28 -76h-146v-1315h-145v1315h-137v-1315h-342q-31 0 -31 61l227 37v520q-91 2 -166.5 26.5t-134 72.5t-91 127t-32.5 182z" />
<glyph unicode="&#xb7;" horiz-adv-x="403" d="M98 479q0 28 4 61.5t8 52.5l5 19q73 15 116 15q74 0 74 -127q0 -26 -3.5 -58t-7.5 -50l-3 -19q-72 -19 -117 -19q-76 0 -76 125z" />
<glyph unicode="&#xb8;" horiz-adv-x="839" d="M225 -414l39 62q48 -39 113 -39q49 0 77.5 29.5t28.5 70.5q0 47 -39.5 82.5t-115.5 38.5l69 170h66l-35 -115q91 -11 137.5 -60t46.5 -114q0 -73 -59.5 -130.5t-151.5 -57.5q-105 0 -176 63z" />
<glyph unicode="&#xb9;" horiz-adv-x="839" d="M121 1178q0 1 83.5 22t173.5 41.5t103 20.5q13 -5 23 -19.5t10 -34.5v-725l188 -41q0 -63 -36 -63l-234 6l-256 -6q-35 0 -35 63l244 41v668l-211 -53q-20 0 -36.5 32.5t-16.5 47.5z" />
<glyph unicode="&#xba;" horiz-adv-x="702" d="M37 1114q0 147 89.5 227t227.5 80q135 0 222.5 -77.5t87.5 -221.5q0 -157 -89.5 -240t-234.5 -83q-136 0 -219.5 81.5t-83.5 233.5zM70 715h551l12 -58q-102 -47 -334 -47q-106 0 -219 17zM147 1114q0 -124 56 -188t147 -64q90 0 145.5 64t55.5 188q0 117 -55.5 179.5 t-145.5 62.5q-58 0 -121 -19q-37 -28 -59.5 -88t-22.5 -135z" />
<glyph unicode="&#xbb;" horiz-adv-x="942" d="M102 70l267 395l-267 395l60 49l385 -415v-58l-385 -416zM436 70l266 395l-266 395l60 49l385 -415v-58l-385 -416z" />
<glyph unicode="&#xbc;" horiz-adv-x="2027" d="M121 1272q0 1 83.5 22t173.5 41.5t103 20.5q33 -12 33 -53v-725l188 -41q0 -64 -36 -64l-234 6l-256 -6q-35 0 -35 64l244 41v667l-211 -53q-20 0 -36.5 32.5t-16.5 47.5zM629 -115l645 1549h104l-645 -1549h-104zM1194 221q0 14 268 678l123 -37l-268 -592h291v316 q75 14 104 14q12 -7 15.5 -18.5t3.5 -34.5v-277h141v-82h-141v-96l122 -29q0 -61 -34 -63l-152 6l-174 -6q-35 0 -35 63l150 29v96h-365q-49 0 -49 33z" />
<glyph unicode="&#xbd;" horiz-adv-x="2027" d="M121 1272q0 1 83.5 22t173.5 41.5t103 20.5q33 -12 33 -53v-725l188 -41q0 -64 -36 -64l-234 6l-256 -6q-35 0 -35 64l244 41v667l-211 -53q-20 0 -36.5 32.5t-16.5 47.5zM582 -115l645 1549h104l-645 -1549h-104zM1223 55l290 262q42 37 70.5 67t61.5 72.5t50 90.5 t17 98q0 76 -48.5 113t-121.5 37q-79 0 -149 -31l4 -88q0 -13 -30.5 -22t-47.5 -9q-37 145 -41 180q116 58 266 58q58 0 110 -13t97 -40t71.5 -74.5t26.5 -110.5q0 -52 -18 -103.5t-45.5 -94.5t-70.5 -88.5t-83.5 -80t-93.5 -75.5l-166 -127l412 33v86q0 34 65 34 q1 0 11.5 -45t21 -95t10.5 -60q-2 -15 -10.5 -22t-32.5 -7h-585zM1352 61v45h26l19 -45h-45z" />
<glyph unicode="&#xbe;" horiz-adv-x="2027" d="M117 514q2 16 25.5 98t27.5 82q17 0 40 -7t23 -23l-4 -89q67 -30 166 -30q75 0 131 42.5t56 119.5q0 73 -77 123t-212 51l-12 69q131 14 197.5 66t66.5 125q0 57 -40 92t-110 35q-66 0 -129 -29l4 -90q0 -13 -31.5 -22t-48.5 -9q-36 164 -40 180q119 58 251 58 q72 0 131.5 -19.5t102.5 -69.5t43 -124q0 -64 -41.5 -119.5t-106.5 -91.5q87 -25 136 -86t49 -133q0 -115 -93.5 -185.5t-220.5 -70.5q-153 0 -284 57zM641 -115l645 1549h105l-646 -1549h-104zM1194 221q0 14 268 678l123 -37l-268 -592h291v316q75 14 104 14 q12 -7 15.5 -18.5t3.5 -34.5v-277h141v-82h-141v-96l122 -29q0 -61 -34 -63l-152 6l-174 -6q-35 0 -35 63l150 29v96h-365q-49 0 -49 33z" />
<glyph unicode="&#xbf;" horiz-adv-x="880" d="M109 -145q0 68 36.5 142.5t89 137t105 120.5t89 110.5t36.5 89.5v102h70q16 -141 16 -203q-1 -27 -30.5 -72t-71.5 -96t-85.5 -104.5t-78 -112t-43.5 -104.5q2 -70 48 -117.5t108.5 -66.5t136.5 -19q57 0 96 8v207q0 29 86 29l53 -316q-123 -30 -238 -30 q-186 0 -304.5 79.5t-118.5 215.5zM399 842q0 21 3.5 46t7.5 40l4 14q71 16 116 16q76 0 76 -100q0 -23 -4 -49.5t-8 -41.5l-4 -15q-74 -13 -117 -13q-74 0 -74 103z" />
<glyph unicode="&#xc0;" horiz-adv-x="1351" d="M-27 61l154 45l471 1328h156l475 -1328l153 -45q0 -61 -30 -61q-25 0 -203 8l-244 -8q-31 0 -31 61l185 45l-129 363l-563 -29l-113 -334l195 -45q0 -61 -31 -61q-7 0 -228 8l-186 -8q-31 0 -31 61zM408 559h491l-250 709zM494 1755q0 27 20 75.5t31 61.5 q87 -70 185 -143.5t153 -111.5l55 -38l-23 -38q-87 24 -204.5 68.5t-206.5 101.5q-10 5 -10 24z" />
<glyph unicode="&#xc1;" horiz-adv-x="1351" d="M-27 61l154 45l471 1328h156l475 -1328l153 -45q0 -61 -30 -61q-25 0 -203 8l-244 -8q-31 0 -31 61l185 45l-129 363l-563 -29l-113 -334l195 -45q0 -61 -31 -61q-7 0 -228 8l-186 -8q-31 0 -31 61zM408 559h491l-250 709zM493 1600q199 135 394 293q10 -13 30.5 -62 t20.5 -76q0 -19 -10 -24q-158 -101 -412 -170z" />
<glyph unicode="&#xc2;" horiz-adv-x="1351" d="M-27 61l154 45l471 1328h156l475 -1328l153 -45q0 -61 -30 -61q-25 0 -203 8l-244 -8q-31 0 -31 61l185 45l-129 363l-563 -29l-113 -334l195 -45q0 -61 -31 -61q-7 0 -228 8l-186 -8q-31 0 -31 61zM408 559h491l-250 709zM465 1577q132 189 205 326h92q73 -137 205 -326 l-54 -35l-196 209l-199 -209z" />
<glyph unicode="&#xc3;" horiz-adv-x="1351" d="M-27 61l154 45l471 1328h156l475 -1328l153 -45q0 -61 -30 -61q-25 0 -203 8l-244 -8q-31 0 -31 61l185 45l-129 363l-563 -29l-113 -334l195 -45q0 -61 -31 -61q-7 0 -228 8l-186 -8q-31 0 -31 61zM393 1674q89 153 207 153q49 0 140 -27.5t139 -27.5q63 0 127 61 l35 -39q-89 -153 -207 -153q-49 0 -140 27.5t-139 27.5q-63 0 -127 -61zM408 559h491l-250 709z" />
<glyph unicode="&#xc4;" horiz-adv-x="1351" d="M-27 61l154 45l471 1328h156l475 -1328l153 -45q0 -61 -30 -61q-25 0 -203 8l-244 -8q-31 0 -31 61l185 45l-129 363l-563 -29l-113 -334l195 -45q0 -61 -31 -61q-7 0 -228 8l-186 -8q-31 0 -31 61zM408 559h491l-250 709zM477 1720q0 70 15 115q67 14 100 14t48 -31 t15 -77q0 -73 -12 -109q-65 -18 -100 -18q-66 0 -66 106zM780 1720q0 70 15 115q67 14 100 14t48 -31t15 -77q0 -73 -12 -109q-65 -18 -100 -18q-66 0 -66 106z" />
<glyph unicode="&#xc5;" horiz-adv-x="1351" d="M-27 61l154 45l471 1328h156l475 -1328l153 -45q0 -61 -30 -61q-25 0 -203 8l-244 -8q-31 0 -31 61l185 45l-129 363l-563 -29l-113 -334l195 -45q0 -61 -31 -61q-7 0 -228 8l-186 -8q-31 0 -31 61zM408 559h491l-250 709zM526 1737q0 83 55.5 130.5t137.5 47.5 q81 0 133.5 -45t52.5 -129q0 -92 -52 -139t-142 -47q-82 0 -133.5 46.5t-51.5 135.5zM621 1737q0 -57 27.5 -86t68.5 -29q42 0 68 29t26 86q0 52 -26.5 81.5t-67.5 29.5q-33 0 -55 -11q-19 -9 -30 -37t-11 -63z" />
<glyph unicode="&#xc6;" horiz-adv-x="1771" d="M-27 61l154 45l565 1328l170 -9l694 9q33 0 49 -3.5t17 -17.5l-49 -305q-88 0 -88 29v192l-600 -6l119 -541h577v-88l-553 -28l121 -553h453l53 192q0 29 86 29l-17 -309q-3 -25 -43 -25q-10 0 -606 16l-244 -16q-30 0 -30 61l184 45l-78 363l-514 -25l-139 -338l195 -45 q0 -61 -31 -61q-7 0 -228 8l-186 -8q-31 0 -31 61zM440 559h449l-154 715z" />
<glyph unicode="&#xc7;" horiz-adv-x="1273" d="M61 725q0 175 54.5 316t149.5 231t220.5 138t270.5 48q239 0 422 -123l-54 -305q-92 0 -92 29v227q-53 21 -135.5 36t-153.5 15q-149 0 -294 -49q-96 -71 -151.5 -222.5t-55.5 -344.5q0 -157 38 -279.5t106 -200t158.5 -117.5t198.5 -40q184 0 310 76l47 209q8 28 92 28 l-16 -293q-172 -129 -453 -129q-144 0 -263.5 47.5t-209 138.5t-139.5 235.5t-50 328.5zM442 -414l39 62q48 -39 113 -39q49 0 77.5 29.5t28.5 70.5q0 47 -39.5 82.5t-115.5 38.5l69 170h66l-35 -115q91 -11 137.5 -60t46.5 -114q0 -73 -59.5 -130.5t-151.5 -57.5 q-105 0 -176 63z" />
<glyph unicode="&#xc8;" horiz-adv-x="1189" d="M82 61l172 45v1221l-172 45q0 62 31 62q18 -1 211 -9l696 9q33 0 48.5 -3.5t16.5 -17.5l-49 -305q-88 0 -88 29v192l-542 -6l18 -541h524v-88l-524 -26l-18 -555h563l53 192q0 29 86 29l-16 -309q-1 -16 -13.5 -20.5t-46.5 -4.5l-704 16l-215 -16q-31 0 -31 61zM373 1755 q0 27 20 75.5t31 61.5q87 -70 185 -143.5t153 -111.5l55 -38l-22 -38q-254 69 -412 170q-10 5 -10 24z" />
<glyph unicode="&#xc9;" horiz-adv-x="1189" d="M82 61l172 45v1221l-172 45q0 62 31 62q18 -1 211 -9l696 9q33 0 48.5 -3.5t16.5 -17.5l-49 -305q-88 0 -88 29v192l-542 -6l18 -541h524v-88l-524 -26l-18 -555h563l53 192q0 29 86 29l-16 -309q-1 -16 -13.5 -20.5t-46.5 -4.5l-704 16l-215 -16q-31 0 -31 61zM373 1599 q198 135 393 293q11 -13 31 -61.5t20 -75.5q0 -19 -10 -24q-158 -101 -412 -170z" />
<glyph unicode="&#xca;" horiz-adv-x="1189" d="M82 61l172 45v1221l-172 45q0 62 31 62q18 -1 211 -9l696 9q33 0 48.5 -3.5t16.5 -17.5l-49 -305q-88 0 -88 29v192l-542 -6l18 -541h524v-88l-524 -26l-18 -555h563l53 192q0 29 86 29l-16 -309q-1 -16 -13.5 -20.5t-46.5 -4.5l-704 16l-215 -16q-31 0 -31 61zM344 1577 q132 189 205 326h92q73 -137 205 -326l-53 -35l-197 209l-199 -209z" />
<glyph unicode="&#xcb;" horiz-adv-x="1189" d="M82 61l172 45v1221l-172 45q0 62 31 62q18 -1 211 -9l696 9q33 0 48.5 -3.5t16.5 -17.5l-49 -305q-88 0 -88 29v192l-542 -6l18 -541h524v-88l-524 -26l-18 -555h563l53 192q0 29 86 29l-16 -309q-1 -16 -13.5 -20.5t-46.5 -4.5l-704 16l-215 -16q-31 0 -31 61zM354 1720 q0 70 15 115q67 14 100 14t48 -31t15 -77q0 -73 -12 -109q-65 -18 -100 -18q-66 0 -66 106zM657 1720q0 70 15 115q67 14 100 14t48.5 -31t15.5 -77q0 -70 -13 -109q-65 -18 -100 -18q-66 0 -66 106z" />
<glyph unicode="&#xcc;" horiz-adv-x="667" d="M80 61l176 45l-10 611l10 610l-176 45q0 62 31 62q36 -1 229 -9l211 9q31 0 31 -62l-176 -45l10 -610l-10 -611l176 -45q0 -61 -31 -61q-21 0 -211 8l-229 -8q-31 0 -31 61zM113 1755q0 27 20 75.5t31 61.5q87 -70 185 -143.5t153 -111.5l55 -38l-22 -38 q-254 69 -412 170q-10 5 -10 24z" />
<glyph unicode="&#xcd;" horiz-adv-x="667" d="M80 61l176 45l-10 611l10 610l-176 45q0 62 31 62q36 -1 229 -9l211 9q31 0 31 -62l-176 -45l10 -610l-10 -611l176 -45q0 -61 -31 -61q-21 0 -211 8l-229 -8q-31 0 -31 61zM113 1599q198 135 393 293q11 -13 31 -61.5t20 -75.5q0 -19 -10 -24q-158 -101 -412 -170z" />
<glyph unicode="&#xce;" horiz-adv-x="667" d="M80 61l176 45l-10 611l10 610l-176 45q0 62 31 62q36 -1 229 -9l211 9q31 0 31 -62l-176 -45l10 -610l-10 -611l176 -45q0 -61 -31 -61q-21 0 -211 8l-229 -8q-31 0 -31 61zM84 1577q132 189 205 326h92q73 -137 205 -326l-54 -35l-196 209l-199 -209z" />
<glyph unicode="&#xcf;" horiz-adv-x="667" d="M80 61l176 45l-10 611l10 610l-176 45q0 62 31 62q36 -1 229 -9l211 9q31 0 31 -62l-176 -45l10 -610l-10 -611l176 -45q0 -61 -31 -61q-21 0 -211 8l-229 -8q-31 0 -31 61zM94 1720q0 70 15 115q67 14 100 14t48 -31t15 -77q0 -73 -12 -109q-65 -18 -100 -18 q-66 0 -66 106zM397 1720q0 70 15 115q67 14 100 14t48 -31t15 -77q0 -73 -12 -109q-65 -18 -100 -18q-66 0 -66 106z" />
<glyph unicode="&#xd0;" horiz-adv-x="1531" d="M102 61l172 45v1221l-172 45q0 62 31 62q34 -1 227 -9l418 33q141 0 262 -45t213 -132t144.5 -225t52.5 -313q0 -190 -52 -336t-147 -236.5t-222.5 -136.5t-283.5 -46l-385 28l-227 -16q-31 0 -31 61zM137 664v118h688v-88zM426 125q182 -41 340 -41q109 0 200 39 t159.5 116t106.5 200t38 282q0 154 -38 274.5t-106.5 197t-159.5 116t-200 39.5q-178 0 -340 -39l20 -592z" />
<glyph unicode="&#xd1;" horiz-adv-x="1617" d="M102 61l168 45v1219l-168 45q0 64 31 64q25 -1 277 -9l862 -1167l-12 1069l-216 45q0 62 33 62l248 -9l180 9q31 0 31 -62l-154 -45l-6 -1327h-114l-881 1194l16 -1088l217 -45q0 -61 -32 -61l-248 8l-201 -8q-31 0 -31 61zM495 1674q89 153 207 153q49 0 140 -27.5 t139 -27.5q63 0 127 61l35 -39q-89 -153 -207 -153q-49 0 -140 27.5t-139 27.5q-63 0 -127 -61z" />
<glyph unicode="&#xd2;" horiz-adv-x="1488" d="M61 725q0 175 54.5 316t149.5 231t220.5 138t270.5 48q141 0 261.5 -45t212.5 -132t144.5 -225t52.5 -313q0 -190 -52 -338t-146.5 -241t-222 -141t-283.5 -48q-144 0 -263.5 47.5t-209 138.5t-139.5 235.5t-50 328.5zM242 721q0 -159 38 -283.5t106 -203.5t158.5 -119.5 t198.5 -40.5q109 0 200 40.5t159.5 119.5t106.5 203.5t38 283.5q0 154 -38 274.5t-106.5 197t-159.5 116t-200 39.5q-146 0 -294 -50q-96 -72 -151.5 -226.5t-55.5 -350.5zM522 1755q0 27 20 75.5t31 61.5q87 -70 185.5 -143.5t153.5 -111.5l55 -38l-23 -38 q-254 69 -412 170q-10 5 -10 24z" />
<glyph unicode="&#xd3;" horiz-adv-x="1488" d="M61 725q0 175 54.5 316t149.5 231t220.5 138t270.5 48q141 0 261.5 -45t212.5 -132t144.5 -225t52.5 -313q0 -190 -52 -338t-146.5 -241t-222 -141t-283.5 -48q-144 0 -263.5 47.5t-209 138.5t-139.5 235.5t-50 328.5zM242 721q0 -159 38 -283.5t106 -203.5t158.5 -119.5 t198.5 -40.5q109 0 200 40.5t159.5 119.5t106.5 203.5t38 283.5q0 154 -38 274.5t-106.5 197t-159.5 116t-200 39.5q-146 0 -294 -50q-96 -72 -151.5 -226.5t-55.5 -350.5zM522 1599q198 135 393 293q11 -13 31.5 -61.5t20.5 -75.5q0 -19 -11 -24q-89 -57 -206.5 -101.5 t-204.5 -68.5z" />
<glyph unicode="&#xd4;" horiz-adv-x="1488" d="M61 725q0 175 54.5 316t149.5 231t220.5 138t270.5 48q141 0 261.5 -45t212.5 -132t144.5 -225t52.5 -313q0 -190 -52 -338t-146.5 -241t-222 -141t-283.5 -48q-144 0 -263.5 47.5t-209 138.5t-139.5 235.5t-50 328.5zM242 721q0 -159 38 -283.5t106 -203.5t158.5 -119.5 t198.5 -40.5q109 0 200 40.5t159.5 119.5t106.5 203.5t38 283.5q0 154 -38 274.5t-106.5 197t-159.5 116t-200 39.5q-146 0 -294 -50q-96 -72 -151.5 -226.5t-55.5 -350.5zM494 1577q127 183 204 326h93q77 -143 204 -326l-53 -35l-197 209l-198 -209z" />
<glyph unicode="&#xd5;" horiz-adv-x="1488" d="M61 725q0 175 54.5 316t149.5 231t220.5 138t270.5 48q141 0 261.5 -45t212.5 -132t144.5 -225t52.5 -313q0 -190 -52 -338t-146.5 -241t-222 -141t-283.5 -48q-144 0 -263.5 47.5t-209 138.5t-139.5 235.5t-50 328.5zM242 721q0 -159 38 -283.5t106 -203.5t158.5 -119.5 t198.5 -40.5q109 0 200 40.5t159.5 119.5t106.5 203.5t38 283.5q0 154 -38 274.5t-106.5 197t-159.5 116t-200 39.5q-146 0 -294 -50q-96 -72 -151.5 -226.5t-55.5 -350.5zM420 1673q89 154 207 154q49 0 139.5 -27.5t138.5 -27.5q63 0 127 61l35 -39q-89 -154 -207 -154 q-49 0 -139.5 28t-138.5 28q-62 0 -127 -62z" />
<glyph unicode="&#xd6;" horiz-adv-x="1488" d="M61 725q0 175 54.5 316t149.5 231t220.5 138t270.5 48q141 0 261.5 -45t212.5 -132t144.5 -225t52.5 -313q0 -190 -52 -338t-146.5 -241t-222 -141t-283.5 -48q-144 0 -263.5 47.5t-209 138.5t-139.5 235.5t-50 328.5zM242 721q0 -159 38 -283.5t106 -203.5t158.5 -119.5 t198.5 -40.5q109 0 200 40.5t159.5 119.5t106.5 203.5t38 283.5q0 154 -38 274.5t-106.5 197t-159.5 116t-200 39.5q-146 0 -294 -50q-96 -72 -151.5 -226.5t-55.5 -350.5zM504 1720q0 73 14 115q67 14 100 14t48.5 -31t15.5 -77q0 -73 -12 -109q-66 -18 -101 -18 q-65 0 -65 106zM807 1720q0 73 14 115q68 14 101 14t48 -31t15 -77q0 -73 -12 -109q-66 -18 -101 -18q-65 0 -65 106z" />
<glyph unicode="&#xd7;" d="M188 317l250 250l-250 252l82 82l250 -252l252 252l82 -82l-252 -252l252 -250l-82 -81l-252 249l-250 -249z" />
<glyph unicode="&#xd8;" horiz-adv-x="1488" d="M61 725q0 175 54.5 316t149.5 231t220.5 138t270.5 48q141 0 261.5 -45t212.5 -132t144.5 -225t52.5 -313q0 -190 -52 -338t-146.5 -241t-222 -141t-283.5 -48q-144 0 -263.5 47.5t-209 138.5t-139.5 235.5t-50 328.5zM242 721q0 -159 38 -283.5t106 -203.5t158.5 -119.5 t198.5 -40.5q109 0 200 40.5t159.5 119.5t106.5 203.5t38 283.5q0 154 -38 274.5t-106.5 197t-159.5 116t-200 39.5q-146 0 -294 -50q-96 -72 -151.5 -226.5t-55.5 -350.5zM348 -102l682 1638h111l-682 -1638h-111z" />
<glyph unicode="&#xd9;" horiz-adv-x="1501" d="M82 1370q0 64 31 64q13 -1 206 -9l236 9q33 0 33 -62l-195 -45v-887q0 -162 95.5 -257t293.5 -95q98 0 176 29.5t125 79.5t71 112.5t24 132.5v885l-195 45q0 62 33 62l223 -9l160 9q31 0 31 -62l-134 -45v-881q0 -212 -138.5 -341.5t-379.5 -129.5q-261 0 -403 114.5 t-142 356.5v881zM528 1755q0 27 20.5 75.5t31.5 61.5q87 -70 185 -143.5t153 -111.5l55 -38l-23 -38q-87 24 -204.5 68.5t-206.5 101.5q-11 5 -11 24z" />
<glyph unicode="&#xda;" horiz-adv-x="1501" d="M82 1370q0 64 31 64q13 -1 206 -9l236 9q33 0 33 -62l-195 -45v-887q0 -162 95.5 -257t293.5 -95q98 0 176 29.5t125 79.5t71 112.5t24 132.5v885l-195 45q0 62 33 62l223 -9l160 9q31 0 31 -62l-134 -45v-881q0 -212 -138.5 -341.5t-379.5 -129.5q-261 0 -403 114.5 t-142 356.5v881zM643 1600q199 135 394 293q10 -13 30.5 -62t20.5 -76q0 -19 -10 -24q-158 -101 -412 -170z" />
<glyph unicode="&#xdb;" horiz-adv-x="1501" d="M82 1370q0 64 31 64q13 -1 206 -9l236 9q33 0 33 -62l-195 -45v-887q0 -162 95.5 -257t293.5 -95q98 0 176 29.5t125 79.5t71 112.5t24 132.5v885l-195 45q0 62 33 62l223 -9l160 9q31 0 31 -62l-134 -45v-881q0 -212 -138.5 -341.5t-379.5 -129.5q-261 0 -403 114.5 t-142 356.5v881zM549 1577q132 189 205 326h92q73 -137 205 -326l-54 -35l-196 209l-199 -209z" />
<glyph unicode="&#xdc;" horiz-adv-x="1501" d="M82 1370q0 64 31 64q13 -1 206 -9l236 9q33 0 33 -62l-195 -45v-887q0 -162 95.5 -257t293.5 -95q98 0 176 29.5t125 79.5t71 112.5t24 132.5v885l-195 45q0 62 33 62l223 -9l160 9q31 0 31 -62l-134 -45v-881q0 -212 -138.5 -341.5t-379.5 -129.5q-261 0 -403 114.5 t-142 356.5v881zM557 1721q0 69 15 114q67 15 100 15t48.5 -31.5t15.5 -77.5q0 -69 -13 -108q-65 -19 -100 -19q-66 0 -66 107zM860 1721q0 69 15 114q67 15 100 15t48.5 -31.5t15.5 -77.5q0 -69 -13 -108q-65 -19 -100 -19q-66 0 -66 107z" />
<glyph unicode="&#xdd;" horiz-adv-x="1146" d="M-20 1372q0 62 30 62q21 -1 199 -9l215 9q31 0 31 -62l-174 -45l327 -670l293 670l-168 45q0 62 31 62l213 -9q169 7 160 9q30 -2 30 -62l-133 -45l-364 -756v-465l215 -45q0 -61 -31 -61q-68 0 -258 8l-270 -8q-31 0 -31 61l215 45v461l-397 760zM350 1599 q198 135 393 293q11 -13 31.5 -61.5t20.5 -75.5q0 -19 -11 -24q-89 -57 -206.5 -101.5t-204.5 -68.5z" />
<glyph unicode="&#xde;" horiz-adv-x="1150" d="M102 61l177 45l-11 611l11 610l-177 45q0 62 31 62q36 -1 229 -9l211 9q31 0 31 -62l-176 -45l10 -610l-10 -611l176 -45q0 -61 -31 -61q-21 0 -211 8l-229 -8q-31 0 -31 61zM313 315l121 111l158 -10q89 0 158.5 30.5t110 82t61 111.5t20.5 126q0 63 -19 120.5 t-55.5 104.5t-98.5 75t-140 28l-205 -21l-82 98l324 9q194 0 309 -118.5t115 -297.5q0 -81 -32.5 -154.5t-94 -134.5t-162 -99.5t-226.5 -45.5z" />
<glyph unicode="&#xdf;" horiz-adv-x="1732" d="M92 53q3 31 14 93t22 110.5t13 48.5q78 0 78 -31v-147q91 -49 217 -49q101 0 152 42.5t51 110.5q0 36 -24.5 76t-75.5 68l-263 141q-76 42 -118.5 105t-42.5 129q0 110 95.5 189t260.5 79q120 0 274 -53l-43 -236q-88 0 -88 31v135q-79 27 -153 27q-143 0 -207 -95 q-8 -24 -8 -53q0 -89 106 -145l256 -135q90 -48 137.5 -113t47.5 -131q0 -127 -102 -196.5t-265 -69.5q-159 0 -334 69zM918 53q3 31 14 93t22 110.5t13 48.5q77 0 77 -31v-147q91 -49 218 -49q101 0 151.5 42.5t50.5 110.5q0 36 -24.5 76t-75.5 68l-262 141 q-77 42 -119.5 105t-42.5 129q0 110 95.5 189t260.5 79q121 0 275 -53l-43 -236q-88 0 -88 31v135q-79 27 -154 27q-143 0 -207 -95q-8 -24 -8 -53q0 -88 107 -145l256 -135q90 -48 137 -113t47 -131q0 -127 -102 -196.5t-265 -69.5q-158 0 -333 69z" />
<glyph unicode="&#xe0;" horiz-adv-x="1067" d="M0 61l119 31l346 909h133l350 -907l119 -33q0 -61 -35 -61q-37 0 -166 6l-178 -6q-37 0 -37 63l140 29l-82 227l-381 -20l-74 -207l137 -29q0 -63 -37 -63q-16 0 -178 6l-141 -6q-35 0 -35 61zM268 1255q0 27 20.5 76t30.5 62q87 -70 185.5 -143.5t153.5 -111.5l55 -38 l-23 -39q-87 24 -204.5 68.5t-206.5 101.5q-11 5 -11 24zM362 406h314l-158 438z" />
<glyph unicode="&#xe1;" horiz-adv-x="1067" d="M4 61l119 31l346 909h133l350 -907l119 -33q0 -61 -35 -61q-37 0 -166 6l-178 -6q-37 0 -37 63l140 29l-82 227l-381 -20l-74 -207l137 -29q0 -63 -37 -63q-16 0 -178 6l-141 -6q-35 0 -35 61zM311 1100q199 135 394 293q10 -13 30.5 -62t20.5 -76q0 -19 -11 -24 q-89 -57 -206.5 -101.5t-204.5 -68.5zM367 406h313l-158 438z" />
<glyph unicode="&#xe2;" horiz-adv-x="1067" d="M0 61l119 31l346 909h133l350 -907l119 -33q0 -61 -35 -61q-37 0 -166 6l-178 -6q-37 0 -37 63l140 29l-82 227l-381 -20l-74 -207l137 -29q0 -63 -37 -63q-16 0 -178 6l-141 -6q-35 0 -35 61zM268 1077q132 189 205 326h92q73 -137 205 -326l-53 -35l-197 209l-198 -209 zM362 406h314l-158 438z" />
<glyph unicode="&#xe3;" horiz-adv-x="1067" d="M0 61l119 31l346 909h133l350 -907l119 -33q0 -61 -35 -61q-37 0 -166 6l-178 -6q-37 0 -37 63l140 29l-82 227l-381 -20l-74 -207l137 -29q0 -63 -37 -63q-16 0 -178 6l-141 -6q-35 0 -35 61zM195 1174q49 85 99.5 119t106.5 34q49 0 140 -27.5t139 -27.5q63 0 127 61 l35 -39q-89 -153 -207 -153q-49 0 -140 27.5t-139 27.5q-63 0 -127 -61zM362 406h314l-158 438z" />
<glyph unicode="&#xe4;" horiz-adv-x="1067" d="M0 61l119 31l346 909h133l350 -907l119 -33q0 -61 -35 -61q-37 0 -166 6l-178 -6q-37 0 -37 63l140 29l-82 227l-381 -20l-74 -207l137 -29q0 -63 -37 -63q-16 0 -178 6l-141 -6q-35 0 -35 61zM279 1221q0 72 14 114q67 15 100 15t48.5 -31.5t15.5 -77.5q0 -69 -13 -108 q-65 -19 -100 -19q-65 0 -65 107zM362 406h314l-158 438zM582 1221q0 72 14 114q67 15 100 15t48.5 -31.5t15.5 -77.5q0 -72 -12 -108q-66 -19 -101 -19q-65 0 -65 107z" />
<glyph unicode="&#xe5;" horiz-adv-x="1067" d="M0 61l119 31l346 909h133l350 -907l119 -33q0 -61 -35 -61q-37 0 -166 6l-178 -6q-37 0 -37 63l140 29l-82 227l-381 -20l-74 -207l137 -29q0 -63 -37 -63q-16 0 -178 6l-141 -6q-35 0 -35 61zM330 1237q0 83 55 130.5t137 47.5q81 0 134 -45t53 -129q0 -92 -52.5 -139 t-142.5 -47q-82 0 -133 46.5t-51 135.5zM362 406h314l-158 438zM424 1237q0 -57 27.5 -86t68.5 -29q42 0 68 29t26 86q0 52 -26.5 81.5t-67.5 29.5q-33 0 -55 -11q-19 -9 -30 -37t-11 -63z" />
<glyph unicode="&#xe6;" horiz-adv-x="1376" d="M-20 63l116 31l416 907l143 -6l496 6q46 0 55 -9q6 -7 6 -19l-36 -217q-84 0 -84 30v119l-414 -4l80 -340h356v-84l-332 -20l84 -357h314l34 117q6 22 23.5 28.5t62.5 6.5l-12 -227q-3 -14 -12 -19.5t-29 -5.5q-10 0 -446 12l-180 -12q-35 0 -35 63l133 31l-53 225 l-357 -18l-92 -209l139 -29q0 -63 -34 -63q-2 0 -168 6l-140 -6q-34 0 -34 63zM356 406h291l-102 434z" />
<glyph unicode="&#xe7;" horiz-adv-x="1017" d="M72 506q0 123 41 221.5t112 161t165.5 96t203.5 33.5q184 0 324 -90l-44 -226q-88 0 -88 33v148q-86 28 -202 28q-100 0 -207 -30q-66 -48 -107 -150t-41 -227q0 -205 99 -313.5t256 -108.5q137 0 219 47l35 139q11 27 88 27l-13 -217q-134 -94 -344 -94 q-145 0 -255.5 56.5t-176 176t-65.5 289.5zM319 -414l39 62q48 -39 113 -39q49 0 77.5 29.5t28.5 70.5q0 47 -39.5 82.5t-115.5 38.5l69 170h66l-35 -115q91 -11 137.5 -60t46.5 -114q0 -73 -59.5 -130.5t-151.5 -57.5q-105 0 -176 63z" />
<glyph unicode="&#xe8;" horiz-adv-x="987" d="M113 63l131 29v817l-131 29q0 63 37 63q30 0 169 -6l496 6q19 0 26 -0.5t18 -2.5t14.5 -8.5t3.5 -16.5l-37 -217q-84 0 -84 30v119l-375 -4l18 -340h379v-84l-381 -22l-16 -355h393l35 117q6 22 23.5 28.5t62.5 6.5l-12 -227q-3 -16 -14.5 -20.5t-43.5 -4.5l-506 12 l-169 -12q-37 0 -37 63zM268 1255q0 27 20.5 76t30.5 62q87 -70 185.5 -143.5t153.5 -111.5l55 -38l-23 -39q-87 24 -204.5 68.5t-206.5 101.5q-11 5 -11 24z" />
<glyph unicode="&#xe9;" horiz-adv-x="987" d="M113 63l131 29v817l-131 29q0 63 37 63q30 0 169 -6l496 6q19 0 26 -0.5t18 -2.5t14.5 -8.5t3.5 -16.5l-37 -217q-84 0 -84 30v119l-375 -4l18 -340h379v-84l-381 -22l-16 -355h393l35 117q6 22 23.5 28.5t62.5 6.5l-12 -227q-3 -16 -14.5 -20.5t-43.5 -4.5l-506 12 l-169 -12q-37 0 -37 63zM291 1100q198 135 393 293q10 -13 30.5 -62t20.5 -76q0 -19 -10 -24q-158 -101 -412 -170z" />
<glyph unicode="&#xea;" horiz-adv-x="987" d="M113 63l131 29v817l-131 29q0 63 37 63q30 0 169 -6l496 6q19 0 26 -0.5t18 -2.5t14.5 -8.5t3.5 -16.5l-37 -217q-84 0 -84 30v119l-375 -4l18 -340h379v-84l-381 -22l-16 -355h393l35 117q6 22 23.5 28.5t62.5 6.5l-12 -227q-3 -16 -14.5 -20.5t-43.5 -4.5l-506 12 l-169 -12q-37 0 -37 63zM262 1077q132 189 205 326h92q73 -137 205 -326l-53 -35l-197 209l-199 -209z" />
<glyph unicode="&#xeb;" horiz-adv-x="987" d="M113 63l131 29v817l-131 29q0 63 37 63q30 0 169 -6l496 6q19 0 26 -0.5t18 -2.5t14.5 -8.5t3.5 -16.5l-37 -217q-84 0 -84 30v119l-375 -4l18 -340h379v-84l-381 -22l-16 -355h393l35 117q6 22 23.5 28.5t62.5 6.5l-12 -227q-3 -16 -14.5 -20.5t-43.5 -4.5l-506 12 l-169 -12q-37 0 -37 63zM272 1221q0 69 15 114q67 15 100 15t48.5 -31.5t15.5 -77.5q0 -69 -13 -108q-65 -19 -100 -19q-66 0 -66 107zM575 1221q0 69 15 114q67 15 100 15t48.5 -31.5t15.5 -77.5q0 -69 -13 -108q-65 -19 -100 -19q-66 0 -66 107z" />
<glyph unicode="&#xec;" horiz-adv-x="632" d="M98 1255q0 27 20.5 76t31.5 62q87 -70 185 -143.5t153 -111.5l55 -38l-23 -39q-87 24 -204.5 68.5t-206.5 101.5q-11 5 -11 24zM113 63l131 29v817l-131 29q0 63 37 63q30 0 169 -6l166 6q35 0 35 -61l-131 -31v-817l131 -29q0 -63 -35 -63l-166 12l-169 -12 q-37 0 -37 63z" />
<glyph unicode="&#xed;" horiz-adv-x="632" d="M98 1100q199 135 394 293q10 -13 30.5 -62t20.5 -76q0 -19 -11 -24q-89 -57 -206.5 -101.5t-204.5 -68.5zM113 63l131 29v817l-131 29q0 63 37 63q30 0 169 -6l166 6q35 0 35 -61l-131 -31v-817l131 -29q0 -63 -35 -63l-166 12l-169 -12q-37 0 -37 63z" />
<glyph unicode="&#xee;" horiz-adv-x="632" d="M70 1077q127 183 204 326h93q77 -143 204 -326l-53 -35l-196 209l-199 -209zM113 63l131 29v817l-131 29q0 63 37 63q30 0 169 -6l166 6q35 0 35 -61l-131 -31v-817l131 -29q0 -63 -35 -63l-166 12l-169 -12q-37 0 -37 63z" />
<glyph unicode="&#xef;" horiz-adv-x="632" d="M80 1221q0 72 14 114q68 15 101 15t48 -31.5t15 -77.5q0 -72 -12 -108q-66 -19 -101 -19q-65 0 -65 107zM113 63l131 29v817l-131 29q0 63 37 63q30 0 169 -6l166 6q35 0 35 -61l-131 -31v-817l131 -29q0 -63 -35 -63l-166 12l-169 -12q-37 0 -37 63zM383 1221 q0 72 14 114q68 15 101 15t48 -31.5t15 -77.5q0 -72 -12 -108q-65 -19 -100 -19q-66 0 -66 107z" />
<glyph unicode="&#xf0;" horiz-adv-x="1191" d="M113 63l131 29v817l-131 29q0 63 37 63q30 0 169 -6q42 3 130.5 11.5t130.5 11.5q87 0 164.5 -15t149.5 -52t123 -93t82 -143t31 -197q0 -260 -143.5 -393t-384.5 -133l-280 20l-172 -12q-37 0 -37 63zM121 453v106h618v-80zM381 102q109 -20 237 -20q158 0 255.5 107 t97.5 315q0 418 -387 418q-84 0 -203 -21l20 -387z" />
<glyph unicode="&#xf1;" horiz-adv-x="1292" d="M102 63l136 31l-7 813l-129 29q0 65 37 65q29 0 215 -6l609 -770l-13 682l-162 29q0 65 35 65l193 -6l139 6q35 -4 35 -63l-117 -31l-6 -907h-92l-635 788q2 -115 8 -347t8 -349q25 -6 87 -16t75 -13q0 -63 -37 -63l-188 12l-154 -12q-37 0 -37 63zM322 1174 q49 85 99.5 119t106.5 34q49 0 140 -27.5t139 -27.5q63 0 127 61l35 -39q-89 -153 -207 -153q-49 0 -140 27.5t-139 27.5q-63 0 -127 -61z" />
<glyph unicode="&#xf2;" horiz-adv-x="1171" d="M72 506q0 123 41 221.5t112 161t165.5 96t203.5 33.5q105 0 195.5 -31.5t160.5 -92t110 -157.5t40 -219q0 -132 -39.5 -235t-110.5 -167.5t-167 -98t-212 -33.5q-146 0 -257 56.5t-176.5 176t-65.5 289.5zM231 504q0 -209 98.5 -319.5t256.5 -110.5t256 110.5t98 319.5 q0 202 -98 309t-256 107q-99 0 -209 -31q-66 -50 -106 -153.5t-40 -231.5zM371 1255q0 27 20.5 76t30.5 62q87 -70 185 -143.5t153 -111.5l55 -38l-22 -39q-254 69 -412 170q-10 5 -10 24z" />
<glyph unicode="&#xf3;" horiz-adv-x="1171" d="M72 506q0 123 41 221.5t112 161t165.5 96t203.5 33.5q105 0 195.5 -31.5t160.5 -92t110 -157.5t40 -219q0 -132 -39.5 -235t-110.5 -167.5t-167 -98t-212 -33.5q-146 0 -257 56.5t-176.5 176t-65.5 289.5zM231 504q0 -209 98.5 -319.5t256.5 -110.5t256 110.5t98 319.5 q0 202 -98 309t-256 107q-99 0 -209 -31q-66 -50 -106 -153.5t-40 -231.5zM371 1100q198 135 393 293q10 -13 30.5 -62t20.5 -76q0 -19 -10 -24q-158 -101 -412 -170z" />
<glyph unicode="&#xf4;" horiz-adv-x="1171" d="M72 506q0 123 41 221.5t112 161t165.5 96t203.5 33.5q105 0 195.5 -31.5t160.5 -92t110 -157.5t40 -219q0 -132 -39.5 -235t-110.5 -167.5t-167 -98t-212 -33.5q-146 0 -257 56.5t-176.5 176t-65.5 289.5zM231 504q0 -209 98.5 -319.5t256.5 -110.5t256 110.5t98 319.5 q0 202 -98 309t-256 107q-99 0 -209 -31q-66 -50 -106 -153.5t-40 -231.5zM342 1077q132 189 205 326h92q73 -137 205 -326l-53 -35l-197 209l-199 -209z" />
<glyph unicode="&#xf5;" horiz-adv-x="1171" d="M72 506q0 123 41 221.5t112 161t165.5 96t203.5 33.5q105 0 195.5 -31.5t160.5 -92t110 -157.5t40 -219q0 -132 -39.5 -235t-110.5 -167.5t-167 -98t-212 -33.5q-146 0 -257 56.5t-176.5 176t-65.5 289.5zM231 504q0 -209 98.5 -319.5t256.5 -110.5t256 110.5t98 319.5 q0 202 -98 309t-256 107q-99 0 -209 -31q-66 -50 -106 -153.5t-40 -231.5zM268 1174q89 153 207 153q49 0 140 -27.5t139 -27.5q63 0 127 61l34 -39q-49 -85 -99.5 -119t-106.5 -34q-49 0 -140 27.5t-139 27.5q-63 0 -127 -61z" />
<glyph unicode="&#xf6;" horiz-adv-x="1171" d="M72 506q0 123 41 221.5t112 161t165.5 96t203.5 33.5q105 0 195.5 -31.5t160.5 -92t110 -157.5t40 -219q0 -132 -39.5 -235t-110.5 -167.5t-167 -98t-212 -33.5q-146 0 -257 56.5t-176.5 176t-65.5 289.5zM231 504q0 -209 98.5 -319.5t256.5 -110.5t256 110.5t98 319.5 q0 202 -98 309t-256 107q-99 0 -209 -31q-66 -50 -106 -153.5t-40 -231.5zM352 1221q0 69 15 114q67 15 100 15t48 -31.5t15 -77.5q0 -72 -12 -108q-65 -19 -100 -19q-66 0 -66 107zM655 1221q0 69 15 114q67 15 100 15t48.5 -31.5t15.5 -77.5q0 -69 -13 -108 q-65 -19 -100 -19q-66 0 -66 107z" />
<glyph unicode="&#xf7;" d="M150 510v117h745v-117h-745zM440 311q0 34 24 59t58 25t59 -25t25 -59t-25 -58t-59 -24t-58 24t-24 58zM440 823q0 34 24 59t58 25t59 -25t25 -59t-25 -58t-59 -24t-58 24t-24 58z" />
<glyph unicode="&#xf8;" horiz-adv-x="1171" d="M72 506q0 123 41 221.5t112 161t165.5 96t203.5 33.5q105 0 195.5 -31.5t160.5 -92t110 -157.5t40 -219q0 -132 -39.5 -235t-110.5 -167.5t-167 -98t-212 -33.5q-146 0 -257 56.5t-176.5 176t-65.5 289.5zM197 -317l682 1638h110l-682 -1638h-110zM231 504 q0 -209 98.5 -319.5t256.5 -110.5t256 110.5t98 319.5q0 202 -98 309t-256 107q-99 0 -209 -31q-66 -50 -106 -153.5t-40 -231.5z" />
<glyph unicode="&#xf9;" horiz-adv-x="1185" d="M92 936q0 65 35 65q11 0 154 -6l170 6q38 0 38 -63l-141 -31v-596q0 -105 65.5 -166t202.5 -61q135 0 206 66.5t71 162.5v594l-143 31q0 63 38 63l164 -6l111 6q41 0 41 -63l-96 -31v-590q0 -152 -105.5 -242.5t-288.5 -90.5q-411 0 -411 333v590zM381 1255q0 27 20.5 76 t30.5 62q87 -70 185 -143.5t153 -111.5l55 -38l-22 -39q-254 69 -412 170q-10 5 -10 24z" />
<glyph unicode="&#xfa;" horiz-adv-x="1185" d="M92 936q0 65 35 65q11 0 154 -6l170 6q38 0 38 -63l-141 -31v-596q0 -105 65.5 -166t202.5 -61q135 0 206 66.5t71 162.5v594l-143 31q0 63 38 63l164 -6l111 6q41 0 41 -63l-96 -31v-590q0 -152 -105.5 -242.5t-288.5 -90.5q-411 0 -411 333v590zM412 1100 q198 135 393 293q10 -13 30.5 -62t20.5 -76q0 -19 -10 -24q-158 -101 -412 -170z" />
<glyph unicode="&#xfb;" horiz-adv-x="1185" d="M92 936q0 65 35 65q11 0 154 -6l170 6q38 0 38 -63l-141 -31v-596q0 -105 65.5 -166t202.5 -61q135 0 206 66.5t71 162.5v594l-143 31q0 63 38 63l164 -6l111 6q41 0 41 -63l-96 -31v-590q0 -152 -105.5 -242.5t-288.5 -90.5q-411 0 -411 333v590zM375 1077 q132 189 205 326h92q73 -137 205 -326l-54 -35l-196 209l-199 -209z" />
<glyph unicode="&#xfc;" horiz-adv-x="1185" d="M92 936q0 65 35 65q11 0 154 -6l170 6q38 0 38 -63l-141 -31v-596q0 -105 65.5 -166t202.5 -61q135 0 206 66.5t71 162.5v594l-143 31q0 63 38 63l164 -6l111 6q41 0 41 -63l-96 -31v-590q0 -152 -105.5 -242.5t-288.5 -90.5q-411 0 -411 333v590zM385 1221q0 72 14 114 q68 15 101 15t48 -31.5t15 -77.5q0 -72 -12 -108q-65 -19 -100 -19q-66 0 -66 107zM688 1221q0 72 14 114q68 15 101 15t48 -31.5t15 -77.5q0 -72 -12 -108q-65 -19 -100 -19q-66 0 -66 107z" />
<glyph unicode="&#xfd;" horiz-adv-x="958" d="M31 940q0 61 39 61q12 0 143 -6l158 6q35 0 35 -63l-119 -29q35 -65 105 -202.5t112 -214.5l201 417q-18 5 -60.5 14.5t-62.5 14.5q0 63 36 63l156 -6l119 6q35 -4 35 -61l-101 -33l-264 -508v-305l146 -31q0 -63 -35 -63l-178 12l-183 -12q-39 0 -39 63l146 31v303 l-287 510zM319 1100q199 135 394 293q10 -13 30.5 -62t20.5 -76q0 -19 -10 -24q-158 -101 -412 -170z" />
<glyph unicode="&#xfe;" horiz-adv-x="929" d="M113 63l131 29v817l-131 29q0 63 37 63q30 0 169 -6l166 6q35 0 35 -61l-131 -31v-817l131 -29q0 -63 -35 -63l-166 12l-169 -12q-37 0 -37 63zM244 180v551l75 92h226q147 0 235 -88t88 -221q0 -60 -24.5 -114.5t-71.5 -99t-122.5 -74.5t-170.5 -38l-98 -8h-137z M389 272h100q114 0 178 74t64 170q0 92 -54.5 158t-158.5 67l-129 -14v-455z" />
<glyph unicode="&#xff;" horiz-adv-x="958" d="M31 940q0 61 39 61q12 0 143 -6l158 6q35 0 35 -63l-119 -29q35 -65 105 -202.5t112 -214.5l201 417q-18 5 -60.5 14.5t-62.5 14.5q0 63 36 63l156 -6l119 6q35 -4 35 -61l-101 -33l-264 -508v-305l146 -31q0 -63 -35 -63l-178 12l-183 -12q-39 0 -39 63l146 31v303 l-287 510zM264 1221q0 69 15 114q67 15 100 15t48 -31.5t15 -77.5q0 -72 -12 -108q-65 -19 -100 -19q-66 0 -66 107zM567 1221q0 69 15 114q67 15 100 15t48 -31.5t15 -77.5q0 -72 -12 -108q-65 -19 -100 -19q-66 0 -66 107z" />
<glyph unicode="&#x152;" horiz-adv-x="1957" d="M82 698q0 152 32.5 277.5t90.5 214t139 149.5t177 90t206 29q133 0 344 -33l-31 -118q-169 47 -303 47q-138 0 -266 -45q-97 -74 -153 -229.5t-56 -352.5q0 -160 38.5 -286t107 -205.5t160 -120.5t200.5 -41q125 0 293 65l55 -33l-41 -90q-166 -41 -336 -41 q-142 0 -260 43.5t-207.5 130.5t-139.5 227t-50 322zM829 61l172 45v1221l-172 45q0 62 31 62q18 -1 211 -9l696 9q33 0 49 -3.5t17 -17.5l-49 -305q-88 0 -88 29v192l-543 -6l18 -541h525v-88l-525 -26l-18 -555h563l53 192q0 29 86 29l-16 -309q-1 -16 -13.5 -20.5 t-45.5 -4.5l-705 16l-215 -16q-31 0 -31 61z" />
<glyph unicode="&#x153;" horiz-adv-x="1482" d="M72 489q0 259 134.5 394t350.5 135q99 0 252 -23l502 6q46 0 55 -9q6 -7 6 -19l-37 -217q-84 0 -84 30v119l-374 -4l18 -340h379v-84l-381 -22l-16 -355h393l35 117q6 22 23.5 28.5t62.5 6.5l-13 -227q-3 -16 -14.5 -20.5t-42.5 -4.5l-506 12q-112 -28 -248 -28 q-108 0 -197 30.5t-156.5 91t-104.5 158.5t-37 225zM231 508q0 -210 98.5 -322t256.5 -112q72 0 157 26v801q-100 23 -178 23q-73 0 -190 -31q-67 -52 -105.5 -154t-38.5 -231z" />
<glyph unicode="&#x178;" horiz-adv-x="1146" d="M-20 1372q0 62 30 62q21 -1 199 -9l215 9q31 0 31 -62l-174 -45l327 -670l293 670l-168 45q0 62 31 62l213 -9q169 7 160 9q30 -2 30 -62l-133 -45l-364 -756v-465l215 -45q0 -61 -31 -61q-68 0 -258 8l-270 -8q-31 0 -31 61l215 45v461l-397 760zM373 1720q0 73 14 115 q67 14 100 14t48.5 -31t15.5 -77q0 -73 -12 -109q-66 -18 -101 -18q-65 0 -65 106zM676 1720q0 73 14 115q68 14 101 14t48 -31t15 -77q0 -73 -12 -109q-66 -18 -101 -18q-65 0 -65 106z" />
<glyph unicode="&#x2c6;" horiz-adv-x="686" d="M92 1077q132 189 205 326h92q73 -137 205 -326l-53 -35l-197 209l-199 -209z" />
<glyph unicode="&#x2dc;" horiz-adv-x="851" d="M102 1174q89 153 207 153q49 0 140 -27.5t139 -27.5q63 0 127 61l35 -39q-89 -153 -207 -153q-49 0 -140 27.5t-139 27.5q-63 0 -127 -61z" />
<glyph unicode="&#x2000;" horiz-adv-x="957" />
<glyph unicode="&#x2001;" horiz-adv-x="1915" />
<glyph unicode="&#x2002;" horiz-adv-x="957" />
<glyph unicode="&#x2003;" horiz-adv-x="1915" />
<glyph unicode="&#x2004;" horiz-adv-x="638" />
<glyph unicode="&#x2005;" horiz-adv-x="478" />
<glyph unicode="&#x2006;" horiz-adv-x="319" />
<glyph unicode="&#x2007;" horiz-adv-x="319" />
<glyph unicode="&#x2008;" horiz-adv-x="239" />
<glyph unicode="&#x2009;" horiz-adv-x="383" />
<glyph unicode="&#x200a;" horiz-adv-x="106" />
<glyph unicode="&#x2010;" horiz-adv-x="798" d="M102 571h580l14 -67q-109 -53 -354 -53q-126 0 -229 18z" />
<glyph unicode="&#x2011;" horiz-adv-x="798" d="M102 571h580l14 -67q-109 -53 -354 -53q-126 0 -229 18z" />
<glyph unicode="&#x2012;" horiz-adv-x="798" d="M102 571h580l14 -67q-109 -53 -354 -53q-126 0 -229 18z" />
<glyph unicode="&#x2013;" horiz-adv-x="1210" d="M256 461v114h739v-114h-739z" />
<glyph unicode="&#x2014;" horiz-adv-x="1718" d="M256 461v114h1247v-114h-1247z" />
<glyph unicode="&#x2018;" horiz-adv-x="417" d="M63 1198q0 110 76 200.5t197 114.5l18 -59q-79 -25 -123.5 -79t-44.5 -122v-8q12 2 33 2q76 0 76 -125q0 -28 -4 -61t-8 -53l-4 -19q-62 -14 -121 -14q-43 0 -69 64t-26 159z" />
<glyph unicode="&#x2019;" horiz-adv-x="417" d="M63 1016q79 25 123.5 79t44.5 122v8q-12 -2 -32 -2q-76 0 -76 125q0 28 4 61t8 53l4 19q62 14 121 14q43 0 68.5 -64t25.5 -159q0 -110 -76 -201t-196 -115z" />
<glyph unicode="&#x201a;" horiz-adv-x="403" d="M39 -231q79 25 123.5 78.5t44.5 121.5v8q-12 -2 -33 -2q-76 0 -76 125q0 28 4 61t8 53l5 19q62 15 121 15q43 0 68.5 -64t25.5 -159q0 -110 -76 -201t-197 -115z" />
<glyph unicode="&#x201c;" horiz-adv-x="778" d="M63 1198q0 110 76 200.5t197 114.5l18 -59q-79 -25 -123.5 -79t-44.5 -122v-8q12 2 33 2q76 0 76 -125q0 -28 -4 -61t-8 -53l-4 -19q-62 -14 -121 -14q-43 0 -69 64t-26 159zM424 1198q0 110 76 200.5t196 114.5l19 -59q-79 -25 -123.5 -79t-44.5 -122v-8q12 2 33 2 q75 0 75 -125q0 -28 -4 -61t-8 -53l-4 -19q-62 -14 -121 -14q-43 0 -68.5 64t-25.5 159z" />
<glyph unicode="&#x201d;" horiz-adv-x="778" d="M63 1016q79 25 123.5 79t44.5 122v8q-12 -2 -32 -2q-76 0 -76 125q0 28 4 61t8 53l4 19q62 14 121 14q43 0 68.5 -64t25.5 -159q0 -110 -76 -201t-196 -115zM424 1016q79 25 123.5 79t44.5 122v8q-12 -2 -33 -2q-76 0 -76 125q0 28 4.5 61t8.5 53l4 19q62 14 121 14 q43 0 68.5 -64t25.5 -159q0 -110 -76 -201t-197 -115z" />
<glyph unicode="&#x201e;" horiz-adv-x="778" d="M63 -231q79 25 123.5 78.5t44.5 121.5v8q-12 -2 -32 -2q-76 0 -76 125q0 28 4 61t8 53l4 19q62 15 121 15q43 0 68.5 -64t25.5 -159q0 -110 -76 -201t-196 -115zM424 -231q79 25 123.5 78.5t44.5 121.5v8q-12 -2 -33 -2q-76 0 -76 125q0 28 4.5 61t8.5 53l4 19 q62 15 121 15q43 0 68.5 -64t25.5 -159q0 -110 -76 -201t-197 -115z" />
<glyph unicode="&#x2022;" horiz-adv-x="514" d="M102 532q0 35 6 75.5t12 63.5l7 23q111 17 174 17q111 0 111 -156q0 -31 -5 -69t-11 -60l-5 -23q-108 -22 -176 -22q-113 0 -113 151z" />
<glyph unicode="&#x2026;" horiz-adv-x="1210" d="M98 100q0 28 4 61t8 53l5 19q73 15 116 15q74 0 74 -127q0 -26 -3.5 -58t-7.5 -51l-3 -18q-72 -19 -117 -19q-76 0 -76 125zM502 100q0 28 4 61.5t8 52.5l4 19q74 15 117 15q74 0 74 -127q0 -26 -3.5 -58t-7.5 -51l-4 -18q-71 -19 -116 -19q-76 0 -76 125zM905 100 q0 28 4.5 61t8.5 53l4 19q73 15 116 15q74 0 74 -127q0 -26 -3.5 -58t-6.5 -51l-4 -18q-72 -19 -117 -19q-76 0 -76 125z" />
<glyph unicode="&#x202f;" horiz-adv-x="383" />
<glyph unicode="&#x2039;" horiz-adv-x="608" d="M61 436v58l385 415l60 -49l-266 -395l266 -395l-60 -50z" />
<glyph unicode="&#x203a;" horiz-adv-x="608" d="M102 70l267 395l-267 395l60 49l385 -415v-58l-385 -416z" />
<glyph unicode="&#x205f;" horiz-adv-x="478" />
<glyph unicode="&#x20ac;" d="M80 438v76h110v96h-110v76h117q28 221 150.5 344t293.5 123q81 0 164.5 -22t146.5 -58q-2 -14 -16 -78t-28 -122t-15 -58q-20 0 -51 8.5t-31 24.5l8 149q-35 24 -87 39t-99 15q-234 0 -268 -365h301v-76h-306v-96h306v-76h-301q34 -362 268 -362q94 0 182 55l-8 150 q0 16 30.5 24t51.5 8q1 0 15 -58t28 -122t16 -78q-150 -80 -332 -80q-167 0 -279.5 117.5t-139.5 345.5h-117z" />
<glyph unicode="&#x2122;" horiz-adv-x="1634" d="M49 1415q0 19 45 19l244 -7l246 7q15 0 23.5 -1t15 -5t6.5 -13q-1 -2 -13 -174q-67 0 -69 25l-12 94l-146 -4l4 -285l-4 -287l113 -22q0 -51 -29 -51q-39 0 -131 4l-137 -4q-29 0 -29 51l113 22l-4 287l4 285l-144 4l-14 -94q-4 -25 -70 -25zM653 762l86 22l31 574 l-82 20q0 56 29 56l170 -4l198 -490l226 490l164 4q28 0 28 -56l-82 -20l33 -574l84 -22q0 -51 -29 -51l-116 4l-115 -4q-31 0 -31 51l96 22l-20 480l-229 -504h-37l-209 491l-23 -467l97 -22q0 -51 -31 -51l-111 4l-96 -4q-31 0 -31 51z" />
<glyph unicode="&#x25fc;" horiz-adv-x="1003" d="M0 0v1004h1004v-1004h-1004z" />
<glyph unicode="&#xfb01;" horiz-adv-x="1542" d="M113 63l131 29v817l-131 29q0 63 37 63q30 0 169 -6l451 6q46 0 55 -9q6 -7 6 -19l-36 -217q-84 0 -84 30v119l-330 -4l18 -360h365v-84l-367 -23l-14 -342l174 -29q0 -63 -35 -63l-203 12l-169 -12q-37 0 -37 63zM1010 63l131 29v817l-131 29q0 63 37 63q31 0 170 -6 l165 6q35 0 35 -61l-131 -31v-817l131 -29q0 -63 -35 -63l-165 12l-170 -12q-37 0 -37 63z" />
<glyph unicode="&#xfb02;" horiz-adv-x="1808" d="M113 63l131 29v817l-131 29q0 63 37 63q30 0 169 -6l451 6q46 0 55 -9q6 -7 6 -19l-36 -217q-84 0 -84 30v119l-330 -4l18 -360h365v-84l-367 -23l-14 -342l174 -29q0 -63 -35 -63l-203 12l-169 -12q-37 0 -37 63zM1010 63l131 29v817l-131 29q0 11 2.5 24t11.5 26t23 13 l170 -6l165 6q35 0 35 -61l-131 -31v-809h330l35 117q6 22 23.5 28.5t62.5 6.5l-13 -227q-3 -16 -14.5 -20.5t-42.5 -4.5l-450 12l-170 -12q-37 0 -37 63z" />
</font>
</defs>
</svg>
